<?xml version="1.0" encoding="UTF-8"?>
<svg id="Layer_2" data-name="Layer 2" xmlns="http://www.w3.org/2000/svg" viewBox="0 0 542.6 149.42">
  <defs>
    <style>
      .cls-1 {
        fill: #000;
      }
    </style>
  </defs>
  <g id="Layer_1-2" data-name="Layer 1">
    <g>
      <path class="cls-1" d="M313.62,147.95h-10.89c-16.65-21.48-30.8-43.25-45.02-66.29l.51,22.36,1.22,38.14c.06,1.74-.83,4.64-1.82,5.67-1.22,1.25-4.81,1.58-6.82.56-.36-1.21.58-4.83.58-6.4l.11-65.93-.93-9.41c.44-.68,3.93-1.93,5.3-1.74s2.98,2.04,4.11,3.73l43.45,64.45-.7-28.03-.45-36.12c-.02-1.25,1.83-4.05,3.06-3.9l5.84.7-1.55,10.31.05,47.02c0,8.31,2.38,15.53,3.95,24.87Z"/>
      <path class="cls-1" d="M520.29,142.76l-9.47-23.11c-1.58-3.86-4.99-7.18-9.35-7.44l-13.06-.78.15,23.76,1.43,11.62c-1.88,3.18-8.19,3.03-10.42-.09l-.27-71.23c-.01-3.78-1.53-7.87-2.76-11.84l27.91-.03c11.89-.01,22.02,8,23.54,19.3s-4.77,22.49-17.26,25.99c3.88,2.27,7.22,4.56,8.76,8.05l8.91,20.27c.79,1.8,3.71,3.88,5.4,3.58,5.73-1.02,3.83-6.58,5.9-8.1.45-.33,1.5-.63,1.89-.23,3.74,3.84-3.73,14.15-10.12,16.58-4.08,1.55-9.54-2.31-11.18-6.31ZM501.7,106.77c10.89-.27,15.81-10.31,16.01-19.64.23-10.61-6.63-18.6-17.33-18.37l-11.95.25v38.08s13.26-.33,13.26-.33Z"/>
      <path class="cls-1" d="M367.5,147.65l-33.36.15c-1.04,0-3.27-1.63-3.68-2.49s1.03-2.98,1.57-3.19l3.64,1.54c.8.34,2.13-2.87,1.92-3.49l-.04-67.15-1.94-3.52c-.4-.72-2.23.91-3.33,1.59-.78-.24-2.6-2.75-1.83-3.32l3.53-2.64,32.54-.11c21.75,2.51,29.05,19.82,29.05,41.04,0,8.97-.81,17.49-4.6,25.59-4.2,8.98-12.57,15.97-23.47,16.02ZM379.85,79.77c-4.7-8.41-13.13-11.15-22.45-10.86-3.54.11-7.07.18-9.95,2.32v72.5s15.26-.3,15.26-.3c7.45-.15,14.4-3.49,17.72-10.44,6.65-13.93,6.66-40.26-.58-53.22Z"/>
      <path class="cls-1" d="M191.58,122.12c-1.83,0-4.6,4.11-5.14,6.03l-4.89,17.28c-.19.66,1.28,3.2.71,3.27l-3.96.45c-1.28.14-4.22-.28-5.27-.9s-1.76-3.56-1.33-4.81l25.24-74.2-4.27.67c-.74.12-1.44-1.61-1.39-2.36.25-4.1,10.82-4.2,19.26-2.71l25.5,78.52,1.52,4.67c-2.83,1.5-7.16,1.38-10.08-.1l-8.01-25.88-27.89.08ZM217.69,116.05l-13.9-44.58-13.72,44.59h27.62Z"/>
      <path class="cls-1" d="M116.77,122.03c-2.6,0-5.33,2.06-6.02,4.42l-5.29,18.24-.12,3.85c-.02.64-4.78,1.32-8.47-.27-.94-.41-1.37-2.67-1.63-4.27l25.47-74.89-3.98.88c-.6.13-1.57-.8-1.71-1.4-.19-.8,1.06-3.5,1.92-3.59l11.5-1.1c3.03-.29,5.71.6,6.69,3.61l24.76,76.02,1.5,4.53c-2.82,1.5-7.88,1.49-10.33-.49l-7.83-25.48-26.46-.05ZM141.39,116.02l-13.88-44.39-13.62,44.43,27.5-.04Z"/>
      <path class="cls-1" d="M85.49,131.27c-1.58,16.54-21.08,20.24-38.29,17.11-8.41-1.53-15.26-7.78-15.74-16.25-.11-2,1.25-5.29,2.65-6.11,1.49-.88,5.12-1.01,6.61-.58-1.48,7.87.76,13.9,7.25,17.18s14.73,3.63,21.42.33c4.44-2.2,6.87-7.14,7.09-11.46.26-4.98-1.81-10.42-6.22-13.24l-14.64-9.35c-5.61-3.58-11.91-6.62-16.16-11.59-7.96-9.32-6.37-23.87,4.78-29.38,9.89-4.89,22.41-4.54,32.02.15,4.95,2.42,8.05,7.63,7,12.94-.55,2.81-5.04,4.48-7.66,3.96-.35-3.78-.76-9.04-3.4-11.43-8.06-7.33-23.93-5.62-27.58,2.42-1.54,3.39-1.39,8.21.56,11.5,9.61,16.21,42.9,16.77,40.32,43.82Z"/>
      <path class="cls-1" d="M421.46,109.04l-.03,34.27,38.17-5.03c-.38,3.2-1.55,6.75-3.23,9.78l-41.85.03-3.64-2c-.81-.45.24-3.07.71-4.1l-.16-68.77c-.43-.98-1.38-3.72-.56-4.16l3.73-2.01,40.64.03c2.76,2.59,4.21,6.26,4.23,9.98l-38.04-4.92-.02,30.94,28.98-.03.03,6.04-28.99-.04Z"/>
      <path class="cls-1" d="M18.62,147.39c-3.92,1.83-11.43,2.25-16.06-.84l.14-56.5c.02-7.98.6-15.45-.77-23.16l-1.81-1.59c-1.27-1.12,7.52-3.12,12.28,1.1l.07,71.63c0,1.76,1.46,5.6,2.38,5.91l4.21-.86c.81-.17.46,3.91-.44,4.33Z"/>
      <path class="cls-1" d="M278.51,42.4l.92,3.34c.21.76-1.68,1.52-2.46,1.54s-2.41-1.55-2.41-2.4l-.13-21.23-10.87-.46-12.14.44.12,20.44c0,.68.07,3.31-.53,3.1l-3.55-1.29-.05-45.15,2.45-.72c.78-.23,1.61,2.19,1.61,3.15l-.02,17.89h22.98s.05-20.65.05-20.65l2.37-.31c.6-.08,1.21,1.17,1.67,2.03v40.27Z"/>
      <path class="cls-1" d="M313.71,23.98l-17.44.09.17,20.22,17.05-1.14c.68-.05,2.43.19,3.07.31s-.78,2.84-1.46,2.84l-22.56-.14-.15-34.14-1.03-10.93,24.45.03-1.72,3.25-18.05-1.57.22,18.32,15.96-.18c.06-.1.66,1.14,1.49,3.03Z"/>
      <path class="cls-1" d="M225.46,42.36l1.07,3.26c.25.76-2.01,2.19-2.61,1.66l-2.51-2.2.04-42.16-9.95,1.05c-.72.08-2.53-.13-3.11-.31s-.75-1.65-.81-2.61h31.61s.24,2.52.24,2.52c.06.66-2.26.51-2.93.44l-11.06-1.1.02,39.43Z"/>
    </g>
  </g>
</svg>
