<?xml version="1.0" encoding="UTF-8"?>
<svg id="Layer_2" data-name="Layer 2" xmlns="http://www.w3.org/2000/svg" viewBox="0 0 403.44 403.44">
  <defs>
    <style>
      .cls-1 {
        fill: #0a0908;
      }

      .cls-2 {
        fill: #0c0b0a;
      }

      .cls-3 {
        fill: #211917;
      }

      .cls-4 {
        fill: #ad872a;
      }

      .cls-5 {
        fill: #fbfbfb;
      }
    </style>
  </defs>
  <g id="Layer_1-2" data-name="Layer 1">
    <g>
      <path class="cls-4" d="M403.44,201.72c0,111.41-90.31,201.72-201.72,201.72S0,313.12,0,201.72,90.31,0,201.72,0s201.72,90.31,201.72,201.72ZM98.9,333.77l144.85.15,6,.03,97.39-.16c1.66-8.33.37-16.27.7-24.49l.39-9.51c-5.72-22.02-16.41-41.02-30.69-58.33l-23.06-27.95c-5.59-6.78-10.21-13.57-13.25-21.93l-11.55-31.74c13.28-1.24,32.59-8.31,32.54-17.5-.01-2.02-1.57-4.78-4-5.56l-16.58-5.37c19.87-9.44,41.13-22.27,47.15-43.93,2.65-9.52.66-18.74-7.63-24.98-6.8-5.12-16.53-7.68-25.27-7.07-1.93.14-1.97,3.59-1.75,4.75.79,4.1,11.54,9.35,9.06,14.4-5.18,10.58-16,15.81-26.93,18.4l-46.87,11.09c-4.47-4.72-9.56-9.85-16.18-10.09-17.98-.66-35.18,1.88-53.03,3.77-6.66.71-14.42.87-20.01,3.95-5.23,2.88-8.36,3.78-14.22,2.68-8.16-1.52-16.32-2.67-22.9-8.61-3.04-2.75-4.56-8.49-1.99-12.15,1.66-2.37,5.05-3.02,7.73-4.29,2.08-.98,2.62-6.54-.07-7.04-12.08-2.23-24.68,2.68-32.65,12.64-10.51,13.11-7.09,34.16,6.57,43.11l10.06,6.59c-5.7,2.13-11.19,2.02-15.13,5.61-5.8,5.28,3.14,16.71,21.88,20.26,2.57.49,4.85,1.7,7.74,1.28,3.18-.47,6.6-1.81,10.29-.86,1.61.41.58,4.89-1.48,5.75-11.9,4.97-23.88,12.26-17.91,22.49l7.77,12.5-60.37,3.92,34.85,69.99c12.99,26.08,12.26,55.91,14.13,57.41,1.15.92,2.54.81,4.41.81Z"/>
      <g>
        <path class="cls-1" d="M347.85,309.29c-.11-2.84-2.41-3.99-5.44-4.07-4.59-13.33-9.15-26.77-16.69-38.98l-27.8-37.17-17.68-22.2c-8.34-15.03-12.88-31.24-18.93-47.28l-9.92-1.98c-2.51-.5-3.67-2.83-2.99-5.03s2.64-2.79,5.19-2.17c13.9,3.39,29.06,2.01,40.34-7.57l-37.8-8.86c-11.6-2.72-26.1,13.31-23.37-1.6-7.83-5.04-10.54-14.42-9.61-23.45-2.28-2.92-6.81-7.62-10.9-7.59-22.23.13-43.68,2.62-65.44,5.96-5.71.88-10.01,5.71-13.61,9.31l-5.39,5.4,1.15,15.16c.13,1.69,4.5,2.13,5.24,1.04-1.36-2.54-.78-5.28.82-6.11,2.2-1.14,4.73-.15,5.71,2.1.81,1.85,2.73,2.84,3.94,4.22s1.38,7.01-.37,7.24l-8.88,1.17c-.52,3.95-4.04,5.18-6.73,6.36l-3.61,12.62,21.37,1.64c1.17.09,1.35,1.37.91,1.86-1.75,1.97-23.2-.18-35.54,8.12,4.23-.38,7.59-.25,9.27,3.46l8.84,19.48,15.52-.64-3.69-11.35c-1.65-5.07.6-7.84,4.52-10.6,6.95-4.9,16.38-7.19,23.98-1.94,2.54,1.76.67,7.12-.98,8.84l-6.96,7.25c-1.37,1.43-3.97.85-4.95-.7-2.4-3.82,1.66-5.29,4.11-9.58-4.92,1.02-9.04,4.58-10.11,9.32-.56,2.48,1.27,5.39,2.06,7.61l6.41.58c1.99,2.96,2.51,7.42,5.44,9.87,3.2,2.69,9.86,2.43,13.98.91,15.31-5.66,30.02-11.12,44.35-18.84,7.06-3.8,9.79-12.7,10.72-19.94.36-2.75,2.57-3.55,4.33-3.31,6.67.9.66,22.73-10.24,29.04-15.18,8.79-31.47,14.24-47.7,20.48-3.3,1.27-5.86.89-10.65,1.41l22.35,43.74c6.86.61,12.92,2.73,18.32,6.97,4.51-.42,8.64.69,11.85,3.99l36.6,11.59,1.56-24.86c.12-1.97,2.54-2.66,3.94-2.63,1.49.03,3.37,1.24,3.24,3.4l-1.59,26.87,28.91,13.87c1.18.57,1.24,1.8.9,2.57-.39.89-1.64,1.42-2.99.75-23.51-11.68-47.87-19.13-73.56-24.63-2.06-.49-3.67-4.17-6.49-3.58-4.61.97-8.22,5.16-9.4,8.45-1.82,5.1-1.31,10.44,1.51,14.36,4.62,3.71,9.97,4.58,15.86,4.27,10.67,5.72,19,14.07,27.31,22.65,2.16,2.23,2.93,4.55,1.36,7.4l-6-.03c-6.87-8.32-14.77-17.21-25.07-22.38l-11.81-2.26,2.63,14.54c.44,2.46-.42,4.65-2.84,4.94-1.38.17-3.5-.49-3.97-2.59l-4.49-20c-8.99-2.98-16.46-7.37-21.64-14.69l-68.36,1.4c-2.37.05-3.35-.75-3.17-2.63.13-1.42,1.23-1.93,2.98-1.96l68.08-1.39c3.68-4.91,8.4-7.86,14.07-10.33l-11.71-25.12-23.41-44.99-97.76,5.83,27.84,55.51c9.45,19.07,14.53,39.19,15.67,60.39.12,2.32-.23,4.12-1.88,5.57-1.86,0-3.26.11-4.41-.81-1.87-1.5-1.15-31.33-14.13-57.41l-34.85-69.99,60.37-3.92-7.77-12.5c-5.97-10.23,6.01-17.52,17.91-22.49,2.06-.86,3.09-5.33,1.48-5.75-3.69-.95-7.11.39-10.29.86-2.89.43-5.17-.79-7.74-1.28-18.74-3.55-27.68-14.98-21.88-20.26,3.94-3.59,9.43-3.48,15.13-5.61l-10.06-6.59c-13.66-8.95-17.08-30-6.57-43.11,7.98-9.95,20.57-14.87,32.65-12.64,2.69.5,2.15,6.06.07,7.04-2.68,1.27-6.07,1.93-7.73,4.29-2.56,3.65-1.04,9.4,1.99,12.15,6.58,5.95,14.73,7.09,22.9,8.61,5.86,1.09,8.98.2,14.22-2.68,5.59-3.08,13.36-3.24,20.01-3.95,17.85-1.9,35.05-4.44,53.03-3.77,6.62.24,11.71,5.38,16.18,10.09l46.87-11.09c10.94-2.59,21.75-7.81,26.93-18.4,2.48-5.06-8.27-10.3-9.06-14.4-.22-1.16-.18-4.61,1.75-4.75,8.74-.61,18.46,1.95,25.27,7.07,8.29,6.24,10.28,15.46,7.63,24.98-6.03,21.67-27.28,34.5-47.15,43.93l16.58,5.37c2.44.79,3.99,3.55,4,5.56.05,9.19-19.26,16.26-32.54,17.5l11.55,31.74c3.04,8.36,7.66,15.15,13.25,21.93l23.06,27.95c14.28,17.32,24.98,36.31,30.69,58.33l-.39,9.51ZM95.37,97.08c.48-1.86.32-2.46.13-3.59-5.59-1.1-12.13.16-13.89,7.05,5.02-2.85,8.26-5.09,13.75-3.47ZM291.11,92.63c-.39-.66-3.16,1.54-2.24,3.45,2.99,6.22,10.28,12.07,17.05,8.43-8.18-1.21-12.04-5.86-14.81-11.88ZM274.13,100.82c.36-1.74-.34-2.92-1.35-3.06-4.37-.63-4.13,14.73,6.48,18.94,1.47.58,1.35-.63,1.37-1.11.05-1.27-8.71-4.12-6.5-14.76ZM103.22,103.65c1.03.02,1.35-2.4.49-2.89-7.1-4.09-17.71,9.22-13.88,9.52,2.21.17,2.51-6.86,13.39-6.63ZM254.69,104.8c-4.29-2.57-5.09,12.31,4.68,17.77,1.16.65,2.46.82,3.04-1.02-10.31-4.99-5.89-15.66-7.72-16.75ZM120.11,110.29c-1.23-4-18.12-.48-17.61,10.2,7.97-12.57,19-5.67,17.61-10.2ZM121.86,142.62l-15.64-2.76-22.49,5.01c10.36,9.38,24.41,10.65,37.1,6.82,1.2-3.25,1.96-5.42,1.03-9.07ZM121.22,199.89c-2.02-5.85-4.04-10.19-6.62-14.4-3.12,1.05-5.35-.13-5.62-2.18-.29-2.18.81-3.88,2.47-5.47-2.96,1.03-5.34,3.01-7.43,4.91.96,6.25,5.54,9.68,8.72,14.56,1.91,2.94,6.61,5.99,8.49,2.57Z"/>
        <path class="cls-5" d="M243.75,333.92l-144.85-.15c1.65-1.45,2-3.25,1.88-5.57-1.14-21.2-6.22-41.32-15.67-60.39l-27.84-55.51,97.76-5.83,23.41,44.99,11.71,25.12c-5.67,2.46-10.38,5.42-14.07,10.33l-68.08,1.39c-1.75.04-2.85.54-2.98,1.96-.17,1.88.8,2.68,3.17,2.63l68.36-1.4c5.18,7.32,12.65,11.71,21.64,14.69l4.49,20c.47,2.1,2.59,2.76,3.97,2.59,2.43-.3,3.29-2.49,2.84-4.94l-2.63-14.54,11.81,2.26c10.3,5.17,18.19,14.06,25.07,22.38ZM159.39,234.3l-77.06,1.55.1,4.82,77.06-1.55-.1-4.82ZM167.1,251.78l-77,1.5.09,4.83,77-1.5-.09-4.83ZM174.2,269.16l-76.86,1.71.11,4.75,76.86-1.71-.11-4.75ZM189.15,304.11l-76.97,1.73.11,4.73,76.97-1.73-.11-4.73Z"/>
        <path class="cls-2" d="M221.98,150.25c1.47-.01,1.8,1.54,2.21,2.18s.05,3.36-1.16,3.23c-12.75-1.34-25.54-1.52-38.03-.28-.52-.93-.6-2.32-.11-2.46l3-.86c1.52-.43.17-6.45-1.55-6.47l-15.06-.18c-1.61-.8-2.61-5.56-1.4-6.8l3.96-4.07c1.78-1.83,2.83-3.06,4.89-2.72,2.58.43,3.31,3.1,1.73,6.8,11.6,1.07,22.83.87,34.36-.76.66.12,1.17,1.2,1.26,1.57.14.58-.11,1.81-1.27,2.04l-12.62,2.46.06,6.52,19.74-.2Z"/>
        <path class="cls-3" d="M165.13,120.54c3.1,2.11-2.66,7.81-3.82,18.17-5.03-7.04-.9-21.37,3.82-18.17Z"/>
        <path class="cls-3" d="M157.01,120.52c2.41,1.71-2.73,8.29-4.78,17.2-2.96-5.9-1.33-11.85.78-16.98.41-1,3.29-.72,4.01-.21Z"/>
        <path class="cls-5" d="M121.86,142.62c.93,3.65.17,5.82-1.03,9.07-12.68,3.84-26.74,2.57-37.1-6.82l22.49-5.01,15.64,2.76Z"/>
        <path class="cls-5" d="M121.22,199.89c-1.88,3.42-6.58.36-8.49-2.57-3.17-4.89-7.76-8.31-8.72-14.56,2.09-1.9,4.47-3.89,7.43-4.91-1.66,1.59-2.76,3.29-2.47,5.47.27,2.05,2.5,3.23,5.62,2.18,2.58,4.21,4.6,8.56,6.62,14.4Z"/>
        <path class="cls-5" d="M274.13,100.82c-2.21,10.64,6.55,13.49,6.5,14.76-.02.48.1,1.69-1.37,1.11-10.6-4.2-10.84-19.57-6.48-18.94,1.01.15,1.71,1.32,1.35,3.06Z"/>
        <path class="cls-5" d="M120.11,110.29c1.4,4.53-9.63-2.37-17.61,10.2-.51-10.68,16.37-14.2,17.61-10.2Z"/>
        <path class="cls-5" d="M254.69,104.8c1.83,1.1-2.59,11.76,7.72,16.75-.58,1.84-1.88,1.67-3.04,1.02-9.77-5.46-8.96-20.34-4.68-17.77Z"/>
        <path class="cls-5" d="M291.11,92.63c2.77,6.02,6.63,10.67,14.81,11.88-6.77,3.64-14.06-2.21-17.05-8.43-.92-1.91,1.85-4.11,2.24-3.45Z"/>
        <path class="cls-5" d="M103.22,103.65c-10.88-.24-11.18,6.8-13.39,6.63-3.83-.3,6.78-13.61,13.88-9.52.86.5.55,2.91-.49,2.89Z"/>
        <path class="cls-5" d="M95.37,97.08c-5.49-1.62-8.74.62-13.75,3.47,1.76-6.89,8.29-8.15,13.89-7.05.19,1.13.35,1.72-.13,3.59Z"/>
        <path class="cls-5" d="M347.85,309.29c-.33,8.23.96,16.17-.7,24.49l-97.39.16c1.58-2.85.8-5.17-1.36-7.4-8.31-8.58-16.64-16.93-27.31-22.65-5.89.31-11.24-.56-15.86-4.27-2.82-3.93-3.33-9.26-1.51-14.36,1.17-3.29,4.78-7.48,9.4-8.45,2.82-.59,4.43,3.1,6.49,3.58,25.69,5.5,50.05,12.96,73.56,24.63,1.34.67,2.59.14,2.99-.75.34-.77.27-2-.9-2.57l-28.91-13.87,1.59-26.87c.13-2.16-1.75-3.37-3.24-3.4-1.4-.03-3.81.66-3.94,2.63l-1.56,24.86-36.6-11.59c-3.21-3.3-7.34-4.42-11.85-3.99-5.4-4.24-11.47-6.36-18.32-6.97l-22.35-43.74c4.79-.52,7.35-.15,10.65-1.41,16.23-6.24,32.52-11.69,47.7-20.48,10.9-6.31,16.91-28.14,10.24-29.04-1.77-.24-3.98.56-4.33,3.31-.94,7.23-3.67,16.14-10.72,19.94-14.33,7.72-29.04,13.18-44.35,18.84-4.12,1.52-10.78,1.78-13.98-.91-2.93-2.46-3.46-6.91-5.44-9.87l-6.41-.58c-.79-2.22-2.62-5.13-2.06-7.61,1.08-4.74,5.19-8.3,10.11-9.32-2.45,4.29-6.51,5.76-4.11,9.58.98,1.55,3.58,2.13,4.95.7l6.96-7.25c1.65-1.72,3.53-7.08.98-8.84-7.6-5.25-17.03-2.95-23.98,1.94-3.92,2.76-6.16,5.53-4.52,10.6l3.69,11.35-15.52.64-8.84-19.48c-1.69-3.71-5.04-3.84-9.27-3.46,12.34-8.3,33.79-6.15,35.54-8.12.44-.49.26-1.77-.91-1.86l-21.37-1.64,3.61-12.62c2.68-1.18,6.2-2.41,6.73-6.36l8.88-1.17c1.75-.23,1.63-5.82.37-7.24s-3.13-2.36-3.94-4.22c-.98-2.25-3.51-3.25-5.71-2.1-1.59.83-2.18,3.58-.82,6.11-.74,1.09-5.11.65-5.24-1.04l-1.15-15.16,5.39-5.4c3.6-3.6,7.9-8.44,13.61-9.31,21.76-3.34,43.21-5.83,65.44-5.96,4.1-.02,8.63,4.67,10.9,7.59-.93,9.03,1.78,18.41,9.61,23.45-2.74,14.91,11.77-1.12,23.37,1.6l37.8,8.86c-11.28,9.58-26.44,10.97-40.34,7.57-2.54-.62-4.54.05-5.19,2.17s.48,4.53,2.99,5.03l9.92,1.98c6.05,16.04,10.59,32.25,18.93,47.28l17.68,22.2,27.8,37.17c7.55,12.21,12.1,25.64,16.69,38.98,3.03.08,5.33,1.23,5.44,4.07ZM157.01,120.52c-.72-.51-3.6-.78-4.01.21-2.11,5.13-3.74,11.08-.78,16.98,2.06-8.91,7.19-15.49,4.78-17.2ZM165.13,120.54c-4.72-3.2-8.84,11.13-3.82,18.17,1.16-10.35,6.92-16.06,3.82-18.17ZM221.98,150.25l-19.74.2-.06-6.52,12.62-2.46c1.15-.22,1.41-1.46,1.27-2.04-.09-.37-.6-1.45-1.26-1.57-11.52,1.63-22.76,1.82-34.36.76,1.58-3.7.86-6.37-1.73-6.8-2.05-.34-3.11.89-4.89,2.72l-3.96,4.07c-1.21,1.24-.21,6,1.4,6.8l15.06.18c1.72.02,3.08,6.04,1.55,6.47l-3,.86c-.49.14-.4,1.53.11,2.46,12.49-1.24,25.27-1.06,38.03.28,1.21.13,1.58-2.6,1.16-3.23s-.74-2.2-2.21-2.18Z"/>
        <rect class="cls-2" x="90.14" y="252.53" width="77.01" height="4.83" transform="translate(-4.94 2.55) rotate(-1.11)"/>
        <rect class="cls-2" x="82.37" y="235.07" width="77.07" height="4.82" transform="translate(-4.74 2.48) rotate(-1.15)"/>
        <rect class="cls-2" x="97.38" y="270.01" width="76.88" height="4.75" transform="translate(-6.02 3.08) rotate(-1.27)"/>
        <rect class="cls-2" x="112.23" y="304.97" width="76.99" height="4.73" transform="translate(-6.86 3.46) rotate(-1.29)"/>
      </g>
    </g>
  </g>
</svg>