<?xml version="1.0" encoding="UTF-8"?>
<svg id="Layer_2" data-name="Layer 2" xmlns="http://www.w3.org/2000/svg" viewBox="0 0 403.34 403.34">
  <defs>
    <style>
      .cls-1 {
        fill: #0c0b0a;
      }

      .cls-2 {
        fill: #211917;
      }

      .cls-3 {
        fill: #ad872a;
      }

      .cls-4 {
        fill: #fbfbfb;
      }
    </style>
  </defs>
  <g id="Layer_1-2" data-name="Layer 1">
    <g>
      <path class="cls-3" d="M403.34,201.67c0,111.38-90.29,201.67-201.67,201.67S0,313.05,0,201.67,90.29,0,201.67,0s201.67,90.29,201.67,201.67ZM81.85,314.6c-.07.44-.04,1.24.21,1.6.57.83,1.29.71,2.81.71l135.26-.32,8.5,8.52c1.46,1.46,4.03.81,5.45-.28,1.32-1.01,1.28-3.14,1.66-4.54.77-1.46,3.86-3.33,6.17-3.34l97.01-.05c.78,0,.59-1.64.21-2.01-1.27-1.2,1.53-3.36,1.48-4.47-.21-5.22-4.15-10.71-6.9-15.48l-21.61-37.39-13.44-21.71-12.84-19.86c-4.06-10.52-5.25-21.69-10.54-32.31,11.86-7.36,24.93-9.22,38.41-9.02l9.62-1.18c.71-1.69.97-4.48-.36-5.69s-3.95-.9-5.32-.73c3.74-2.83,4.99-6.92,3.68-12.46-.65-2.73-5.05-6.25-7.76-7.88,2.04-1.44,3.16-5.62.93-7.84-13.14,1.41-26.65,4.69-38.13,11.59-1.91,1.15-3.9,3.47-6.4,2.28l-5.96-27.85-1.96-48.65c-.19-4.7-7.78-3.72-10.52-1.7l-24.75,18.24-33.61.53c-3.49.06-6.55,1.91-10.34,1.5l-13.3-22.6c-1.58-2.69-4.17-3.72-6.87-3.1s-4.05,2.55-5.09,5.43l-9.84,27.24c-4.58,12.68-10.02,24.55-16.98,35.95-3.21,5.26-7.16,9.61-12.73,12.42-9.21,4.64-14.25,14.15-13.95,24.55-2.58,1.16-4.98.38-7.15.53l-32.86,2.27-35.71,2.07,35.03,69.76c9.55,19.03,14.5,39.34,15.34,60.51.1,2.47,1.34,4.26,3.17,4.77Z"/>
      <g>
        <path class="cls-4" d="M339.13,314.9c.38.36.57,2.01-.21,2.01l-97.01.05c-2.32,0-5.41,1.88-6.17,3.34l-13.46-12.85c-8.84-8.85-19.03-15.05-31.16-18.85-3.13-.98-7.78-3.91-6.22-7.67,4.28-1.92,7.62,2.83,9.91,1.43,3.14-1.92-1.29-6.79-9.05-9.33,4.46-7.68,12.8,1.82,14.31-1.47.41-.89.49-2.03.74-3.98,2.47,2.44,4.95,2.46,7.9,3.46l70.7,24.03c1.85.63,2.79.42,3.18-.85.5-1.64-.39-2.46-1.87-3.05l-19.53-7.78c-4.72-10.28-8.96-20.91-8.34-32.5.11-2.02.09-3.78-1.46-5-.98-.78-2.75-1-4.26-.2-4.95,2.65-.94,21.64,3.11,33.16l-44.99-17.44c-4.79-1.86-8.48-5.73-15.01-2.76-2.77-9.36-6.5-17.04-10.75-25.44l-14.22-28.12,38.5-5.38c1.46-.2,1.92-.29,2.11-1.34s-.7-1.99-2.02-1.66l-31.76,1.09,29.55-15.84,39.17,16.21c1.71.3,3.81-1.42,5.03-1.74,9.34.86,17.77-1.96,24.54-7.76,2.78,11.3,3.34,22.71,7.98,32.87l11.91,18.03,43.74,72.09c1.56,1.24,4.09,1.76,5.13,3.26Z"/>
        <path class="cls-4" d="M220.13,316.59l-135.26.32c-1.52,0-2.24.13-2.81-.71-.25-.36-.28-1.17-.21-1.6,1.56-.22,3.18-.57,4.71-2.18-.41-24.98-6.82-48.83-18.23-71.13l-27.42-54.43,102.53-6.2,28.84,55.73c4.6,8.66,8.37,16.92,11.34,26.74-5.4,5.67-7.79,12.46-7.08,20.41l-75.61,1.43c-1.53.03-2.28,1.43-2.24,2.38.03.87.74,2.23,2.31,2.19l77.25-1.62c2.53,5.36,7.53,7.16,12.78,8.68l1.87,8.1c.45,1.97,1.46,3.61,2.68,4.01,1.76.58,4.04.07,4.61-1.02.82-1.56.44-3.77.63-6.38,7.74,4.18,13.64,9.6,19.3,15.27ZM147.78,209.94l-80.31,1.62.1,4.91,80.31-1.62-.1-4.91ZM155.77,228.23l-80.78,1.65.1,5,80.78-1.65-.1-5ZM163.76,246.57l-80.83,1.58.1,5.04,80.83-1.58-.1-5.04ZM171.76,264.92l-80.97,1.53.1,5.04,80.97-1.53-.1-5.04Z"/>
        <path class="cls-1" d="M313.54,146.71c-14.02-.84-41.59,6.43-43.89,19.71-1.94,11.21-7.04,19.98-16.87,26.32,6.97.74,10.73-3.52,14.99-6.94,11.14-14.52,32.21-16.64,49.85-18.75,1.38-.16,3.99-.47,5.32.73s1.07,4,.36,5.69l-9.62,1.18c-13.48-.2-26.55,1.66-38.41,9.02,5.29,10.62,6.48,21.79,10.54,32.31l12.84,19.86,13.44,21.71,21.61,37.39c2.75,4.76,6.69,10.25,6.9,15.48.05,1.11-2.75,3.27-1.48,4.47-1.04-1.5-3.57-2.02-5.13-3.26l-43.74-72.09-11.91-18.03c-4.65-10.17-5.2-21.57-7.98-32.87-6.77,5.79-15.19,8.61-24.54,7.76-1.22.32-3.32,2.04-5.03,1.74l-39.17-16.21-29.55,15.84,31.76-1.09c1.32-.33,2.2.62,2.02,1.66s-.65,1.13-2.11,1.34l-38.5,5.38,14.22,28.12c4.25,8.4,7.98,16.08,10.75,25.44,6.54-2.97,10.22.9,15.01,2.76l44.99,17.44c-4.05-11.52-8.06-30.51-3.11-33.16,1.51-.81,3.27-.58,4.26.2,1.55,1.22,1.57,2.98,1.46,5-.62,11.59,3.62,22.22,8.34,32.5l19.53,7.78c1.48.59,2.37,1.41,1.87,3.05-.39,1.27-1.33,1.48-3.18.85l-70.7-24.03c-2.95-1-5.43-1.02-7.9-3.46-.24,1.95-.33,3.09-.74,3.98-1.51,3.29-9.85-6.22-14.31,1.47,7.76,2.54,12.19,7.41,9.05,9.33-2.29,1.4-5.64-3.35-9.91-1.43-1.56,3.76,3.1,6.69,6.22,7.67,12.14,3.81,22.32,10,31.16,18.85l13.46,12.85c-.38,1.39-.34,3.53-1.66,4.54-1.43,1.09-4,1.74-5.45.28l-8.5-8.52c-5.66-5.67-11.56-11.09-19.3-15.27-.18,2.61.2,4.82-.63,6.38-.57,1.09-2.85,1.6-4.61,1.02-1.22-.4-2.23-2.04-2.68-4.01l-1.87-8.1c-5.25-1.52-10.25-3.31-12.78-8.68l-77.25,1.62c-1.57.03-2.28-1.33-2.31-2.19-.03-.95.71-2.35,2.24-2.38l75.61-1.43c-.72-7.95,1.68-14.74,7.08-20.41-2.97-9.82-6.74-18.08-11.34-26.74l-28.84-55.73-102.53,6.2,27.42,54.43c11.41,22.3,17.82,46.15,18.23,71.13-1.53,1.6-3.15,1.95-4.71,2.18-1.84-.52-3.07-2.3-3.17-4.77-.85-21.17-5.79-41.48-15.34-60.51l-35.03-69.76,35.71-2.07,32.86-2.27c2.17-.15,4.57.62,7.15-.53-.3-10.4,4.74-19.91,13.95-24.55,5.58-2.81,9.52-7.16,12.73-12.42,6.96-11.4,12.4-23.27,16.98-35.95l9.84-27.24c1.04-2.88,2.44-4.83,5.09-5.43s5.29.41,6.87,3.1l13.3,22.6c3.8.41,6.85-1.45,10.34-1.5l33.61-.53,24.75-18.24c2.74-2.02,10.33-3,10.52,1.7l1.96,48.65,5.96,27.85c2.5,1.19,4.49-1.13,6.4-2.28,11.49-6.9,25-10.17,38.13-11.59,2.23,2.22,1.11,6.4-.93,7.84ZM267.37,158.95c-2.29-.65-4.5-1.63-5.01-3.72l-6.97-28.48-.7-43.7-25.78,18.34-37.86-1.16c-11.92-.37-26.37,5.56-27.94,3.05-.34-.54-.4-1.92.7-2.31l10.56-3.8-9.95-16.5-15.35,41.47c-3.54,9.55-9,17.85-14.95,25.98-3.49,4.77-7.71,7.45-12.96,10.56,11.16.5,21.15-1.38,31.13,1.76,2.46,4.74-1.25,10.29-2.07,14.86l10.47,21.57c11.93-7.16,59.27-29.4,61.01-26.34.21.36.14,1.69-.4,1.96l-9.19,4.55,34.48,14.91c17.05-8.31,15.99-18.41,20.77-33ZM251.47,193.36l-.65.02.65.02h.68l.65-.02-.65-.02h-.68Z"/>
        <path class="cls-4" d="M313.54,146.71c2.7,1.63,7.11,5.15,7.76,7.88,1.31,5.54.06,9.63-3.68,12.46-17.64,2.1-38.71,4.23-49.85,18.75-4.26,3.42-8.02,7.68-14.99,6.94,9.83-6.34,14.92-15.11,16.87-26.32,2.3-13.27,29.87-20.54,43.89-19.71Z"/>
        <rect class="cls-1" x="82.96" y="247.36" width="80.85" height="5.04" transform="translate(-4.87 2.47) rotate(-1.12)"/>
        <rect class="cls-1" x="75.03" y="229.06" width="80.79" height="5" transform="translate(-4.7 2.4) rotate(-1.17)"/>
        <rect class="cls-1" x="90.84" y="265.69" width="80.98" height="5.04" transform="translate(-5.04 2.53) rotate(-1.08)"/>
        <rect class="cls-1" x="67.51" y="210.75" width="80.33" height="4.91" transform="translate(-4.27 2.21) rotate(-1.15)"/>
        <path class="cls-4" d="M267.37,158.95c-4.78,14.59-3.72,24.69-20.77,33l-34.48-14.91,9.19-4.55c.54-.27.61-1.59.4-1.96-1.73-3.06-49.07,19.19-61.01,26.34l-10.47-21.57c.82-4.58,4.52-10.12,2.07-14.86-9.98-3.14-19.98-1.26-31.13-1.76,5.25-3.11,9.47-5.79,12.96-10.56,5.95-8.13,11.42-16.43,14.95-25.98l15.35-41.47,9.95,16.5-10.56,3.8c-1.1.4-1.04,1.77-.7,2.31,1.58,2.51,16.02-3.42,27.94-3.05l37.86,1.16,25.78-18.34.7,43.7,6.97,28.48c.51,2.08,2.72,3.06,5.01,3.72ZM176.65,140.44c.86.78,1.84.2,2.18-.02.32-.21.74-1.07.7-1.87-2.58-2.46-4.62-5.43-6.75-8.65-.9-1.36-3.39-.85-3.52.02l-.53,3.59c-2.7,1.66-4.28-6.66-7.75-4.04-3.28,2.48,4.34,10.22,8.76,11.13.99.21,1.18-2.95-.34-3.53-1.17-.45-1.78-2.24-.14-3.37l7.38,6.74ZM217.61,144.34c.08-1.3-1-3.37-3.01-3.11l-12.74,1.62c-.6-2.01-.69-3.87-.06-5.61l17.63-2.92c1.69-.28,2.07-2.71,1.45-3.79-.42-.74-1.51-2.02-3.1-1.74l-33.31,5.74c-1.85.32-2.75,2.4-2.27,3.66,1.02,2.72,6.33-.3,7.82,4.73.25.85,1.75,2.32,1.2,3.38-.44.85-2.01,1.39-3.01,1.99l-2.13,1.28c-.71.43.03,2.77.68,2.45,17.64-8.57,30.55-2.37,30.86-7.68Z"/>
        <polygon class="cls-4" points="251.47 193.36 252.15 193.36 252.8 193.37 252.15 193.39 251.47 193.39 250.82 193.37 251.47 193.36"/>
        <path class="cls-1" d="M217.61,144.34c-.31,5.3-13.22-.9-30.86,7.68-.65.32-1.39-2.02-.68-2.45l2.13-1.28c1-.6,2.57-1.14,3.01-1.99.54-1.06-.95-2.53-1.2-3.38-1.5-5.03-6.81-2.01-7.82-4.73-.47-1.26.43-3.34,2.27-3.66l33.31-5.74c1.6-.28,2.68,1,3.1,1.74.61,1.08.24,3.51-1.45,3.79l-17.63,2.92c-.63,1.74-.53,3.59.06,5.61l12.74-1.62c2.02-.26,3.09,1.81,3.01,3.11Z"/>
        <path class="cls-2" d="M176.65,140.44l-7.38-6.74c-1.64,1.13-1.03,2.92.14,3.37,1.51.58,1.33,3.74.34,3.53-4.42-.92-12.05-8.65-8.76-11.13,3.47-2.62,5.05,5.7,7.75,4.04l.53-3.59c.13-.87,2.62-1.38,3.52-.02,2.12,3.23,4.16,6.2,6.75,8.65.05.8-.37,1.66-.7,1.87-.34.23-1.32.81-2.18.02Z"/>
      </g>
    </g>
  </g>
</svg>