<?xml version="1.0" encoding="UTF-8"?>
<svg id="Layer_2" data-name="Layer 2" xmlns="http://www.w3.org/2000/svg" viewBox="0 0 403.46 403.46">
  <defs>
    <style>
      .cls-1 {
        fill: #0a0908;
      }

      .cls-2 {
        fill: #0c0b0a;
      }

      .cls-3 {
        fill: #211917;
      }

      .cls-4 {
        fill: #ad872a;
      }

      .cls-5 {
        fill: #fbfbfb;
      }
    </style>
  </defs>
  <g id="Layer_1-2" data-name="Layer 1">
    <g>
      <path class="cls-4" d="M403.46,201.73c0,111.41-90.32,201.73-201.73,201.73S0,313.14,0,201.73,90.32,0,201.73,0s201.73,90.32,201.73,201.73ZM81.48,314.54c.12.52.05,2.34,1.33,2.34l137.82.11,6.74,7.14c1.67,1.77,3.85,2.45,6.11,1.2,1.44-.8,2.12-3.16,1.7-5.17,1.63-.19,3.29-1.91,4.83-3.2l98.52-.06c.92,0,1.02-.52,1.08-.86.13-.75-.51-.89-.97-.74l.03-2.29c1.94-.4,3.46-3.2,2.18-5.46l-23.15-40.73-30.69-48.44c-3.84-6.06-3.94-14.01-6.26-20.67l-3.89-11.19c-.63-1.82-1.83-3.12-3.3-3.66l-.23-2.73c.79-4.06,6.35-.97,7.79-3.26.59-.94.89-3.43.31-4.41-1.02-1.72-8.48,1.67-10.74-2.91-.77-1.71-1.14-3.63-1.06-5.7,6.15-.25,13.59-.06,13.65-3.48.01-.87-1.47-2.48-2.65-2.47l-11.12.05c.41-1.87.88-3.2.53-4.8l-5.84-26.69-.94-31.64-.66-14.94c-.14-3.21-.83-5.66-3.56-6.82-2.31-.98-4.56-.69-7.06,1.31l-9.96,7.97-15.48,11.1c-13.11-.7-25.66-.76-38.63.6l-20.38-27.01c-1.23-1.62-3.49-2.38-5.28-2.11-1.31.2-3.46,1.64-4.05,3.66l-15.31,51.79c-7.24,9.78-12.22,20.51-15.19,32.93l-33.09-1.4c-1.75-.07-3.39.44-3.84,1.54-.37.9.2,3.74,1.38,4.08l30.48,1.41c1.77.08,3.27.33,4.44,1.12,1.03.7,2.35,3.16,1.5,5.27l-32.84.93c-1.88.05-2.76.49-3.44,1.75-.52.96-.68,3.93,1.26,3.93l39.04.03c-.59,1.85-2.08,2.17-3.95,2.04-7.89-.55-15.22.68-23.01,1.1l-25.57,1.39-24.44,1.61-27.2,2.05,27.73,54.48c12.32,24.21,22.05,48.55,22.6,76.08.03,1.7,2.35,2.84,2.73,3.81Z"/>
      <g>
        <path class="cls-5" d="M269.62,163.87c-.08,2.07.29,3.99,1.06,5.7.11.96-.65,2.45-2.02,2.4l-39.07-1.35c-1.92-.07-2.79,1.43-2.88,2.81-.07,1.12.88,2.7,2.75,2.76l39.17,1.23c2.35.07,3.72.5,4.68,2.72l.23,2.73c-1.14-.24-2.16.39-2.37,1.13-.31,1.09-.8,2.72-.54,3.93l7.26,33.52c20.06,28.73,37.5,58.08,54.87,88.17,1.55,2.69,3.02,3.87,5.89,3.39l-.03,2.29c0,.34.61.69.97.74-.06.34-.16.86-1.08.86l-98.52.06c-1.54,1.3-3.2,3.01-4.83,3.2l-10.91-10.91c-9.69-10.05-21.15-17.13-34.68-21.25-2.54-.77-6.28-4.18-4.64-6.78,1.93-3.05,8.15,2.49,9.76,1.24,3.04-2.36-1.3-7.12-8.8-9.2,4.46-7.54,12.33.52,14.05-1.35.46-.5.76-1.75.37-3.52l79.17,26.74c1.39.47,2.58.2,3.02-.72.49-1.02.14-2.48-1.34-3.06l-20.13-7.91-5.35-13.6c-5.46-13.88.42-24.99-6.79-24.63s-3.25,21.88,1.87,34.03l-44.96-17.58c-5.12-2-8.95-5.86-15.65-3.13-3.02-10.91-7.71-19.8-12.69-29.6l-13.22-25.99c.04-1.55,2.39-4.48.6-6.32l-8.83-9.09-7.59-14.44-5.6-.39c-.61-.04-1.39-1.02-1.2-1.33.24-.39,1.16-.7,1.82-.67,2.39.1,3.69-1.5,3.33-3.28-1.02-5.17-10.03,1.29-10.99-7.24l8.67-.39c1.3-.06,1.78-.97,2.04-1.54.4-.9.36-2.97-.83-3.38-3.35-1.16-6.51-.75-10.13-.96,2.18-7.98,4.75-15.27,9.32-21.82,1.44-1.37,6.15-.65,7.21.34-1.95,3.35-1.69,6.35.12,8.41s5.12,2.53,7.29,1.42c2.98-1.54,3.88-4.68,3.01-8.33l9.7,3.31c1.62.55,2.95.35,3.7-.56,4.41-5.36-14.52-9.68-26.71-10.89l3.21-11.05,11.88-39.28,15.11,20.34-15.58,5.43c-.63.22-.57,1.79-.32,2.2,1.36,2.22,15.94-3.49,27.83-3.05-5.9,20.91-2.06,44.44,18.25,48.49,16.77,3.34,34.01,3.45,50.93.18l3.26,9.27-34.21,1.62c-1.75.08-2.48,1.27-2.67,2.68-.18,1.33.92,2.96,2.92,2.88l39.82-1.61ZM180.17,158.11l5.37,4.73c4.4,1.4,9.26,2.46,13.67,1.74,1.67-.27,1.71-2.84,1.02-3.74-2.82-3.67-13.04.46-15.42-8.46,2.19-2.57,7.22-5.06,6.92-9.72-4.32-3.25-12.32-4.66-17.34-1.92-4.67,2.54.12,7.89.66,10.61-1.96,10.84-16.49.77-15.63,7.02.57,4.19,10.67,5.61,14.45,3.56,1.64-.89,3.15-4.42,6.29-3.81ZM197.8,205.09l-5.56-7.8c-.73-1.02-2.18-1.52-3.05-1.24-2.54.8-.47,3.92-2.18,6.06l-3.57-5.03c-.93-1.31-2.63-1.39-3.76-.64-.94.62-1.34,2.44-.13,3.65l6.93,6.91c.89.89,2.95.96,2.93.23l-.12-4.5c3.66,1.31,5.78,5.86,8.34,4.75.46-.2.84-1.44.17-2.39Z"/>
        <path class="cls-5" d="M220.62,316.99l-137.82-.11c-1.28,0-1.21-1.83-1.33-2.34,1.98.21,5.22-.76,5.14-3.63-.67-24.61-7.02-47.93-18.4-69.62l-27.19-54.38,102.55-6.2,28.08,54.13c4.8,9.25,8.96,18.01,12.02,28.25-4.89,5.53-7.76,12.11-7.1,20.51l-75.79,1.45c-1.54.03-2.23,1.5-2.15,2.36.09.93.77,2.21,2.36,2.18l77.38-1.66c1.76,3.59,4.54,6.07,8.2,7,8.62,2.18,4.48,10.87,8.31,13.35,1.36.88,3.78.89,4.69,0,1.51-1.49,1.26-4,1.19-6.95,7.92,3.92,14.18,9.65,19.86,15.67ZM148.33,210.18l-80.89,1.26.08,5.03,80.89-1.26-.08-5.03ZM156.07,228.48l-80.51,1.28.08,4.98,80.51-1.28-.08-4.98ZM163.66,246.66l-80.65,1.49.09,5.04,80.65-1.49-.09-5.04ZM171.53,265.15l-80.52,1.2.07,5.03,80.52-1.2-.07-5.03Z"/>
        <path class="cls-1" d="M269.62,163.87l-39.82,1.61c-2,.08-3.1-1.54-2.92-2.88.19-1.41.92-2.59,2.67-2.68l34.21-1.62-3.26-9.27c-16.92,3.27-34.16,3.16-50.93-.18-20.32-4.05-24.15-27.58-18.25-48.49-11.89-.43-26.47,5.27-27.83,3.05-.25-.41-.31-1.98.32-2.2l15.58-5.43-15.11-20.34-11.88,39.28-3.21,11.05c12.19,1.21,31.13,5.53,26.71,10.89-.75.9-2.08,1.11-3.7.56l-9.7-3.31c.86,3.64-.03,6.78-3.01,8.33-2.16,1.12-5.5.62-7.29-1.42s-2.07-5.06-.12-8.41c-1.05-.99-5.77-1.71-7.21-.34-4.57,6.55-7.15,13.84-9.32,21.82,3.62.21,6.77-.2,10.13.96,1.19.41,1.23,2.49.83,3.38-.26.57-.74,1.48-2.04,1.54l-8.67.39c.95,8.53,9.96,2.07,10.99,7.24.35,1.78-.94,3.38-3.33,3.28-.66-.03-1.58.28-1.82.67-.2.31.59,1.29,1.2,1.33l5.6.39,7.59,14.44,8.83,9.09c1.79,1.84-.56,4.77-.6,6.32l13.22,25.99c4.98,9.79,9.67,18.69,12.69,29.6,6.7-2.73,10.54,1.13,15.65,3.13l44.96,17.58c-5.13-12.15-9-33.67-1.87-34.03s1.32,10.75,6.79,24.63l5.35,13.6,20.13,7.91c1.48.58,1.82,2.04,1.34,3.06-.44.92-1.63,1.19-3.02.72l-79.17-26.74c.39,1.77.08,3.03-.37,3.52-1.72,1.87-9.59-6.19-14.05,1.35,7.49,2.08,11.83,6.84,8.8,9.2-1.62,1.26-7.83-4.29-9.76-1.24-1.64,2.6,2.1,6,4.64,6.78,13.53,4.12,24.99,11.2,34.68,21.25l10.91,10.91c.42,2.01-.26,4.37-1.7,5.17-2.26,1.25-4.44.57-6.11-1.2l-6.74-7.14c-5.68-6.02-11.94-11.75-19.86-15.67.08,2.95.32,5.46-1.19,6.95-.91.89-3.33.88-4.69,0-3.83-2.48.31-11.17-8.31-13.35-3.66-.93-6.44-3.41-8.2-7l-77.38,1.66c-1.6.03-2.27-1.25-2.36-2.18-.08-.86.61-2.33,2.15-2.36l75.79-1.45c-.66-8.41,2.21-14.98,7.1-20.51-3.06-10.24-7.22-18.99-12.02-28.25l-28.08-54.13-102.55,6.2,27.19,54.38c11.39,21.69,17.73,45,18.4,69.62.08,2.87-3.16,3.84-5.14,3.63-.38-.96-2.7-2.1-2.73-3.81-.56-27.53-10.28-51.86-22.6-76.08l-27.73-54.48,27.2-2.05,24.44-1.61,25.57-1.39c7.79-.42,15.12-1.65,23.01-1.1,1.87.13,3.36-.19,3.95-2.04l-39.04-.03c-1.94,0-1.78-2.97-1.26-3.93.68-1.26,1.56-1.7,3.44-1.75l32.84-.93c.85-2.11-.48-4.57-1.5-5.27-1.17-.79-2.67-1.04-4.44-1.12l-30.48-1.41c-1.18-.34-1.75-3.18-1.38-4.08.45-1.1,2.1-1.61,3.84-1.54l33.09,1.4c2.98-12.42,7.95-23.15,15.19-32.93l15.31-51.79c.6-2.02,2.75-3.45,4.05-3.66,1.79-.28,4.06.48,5.28,2.11l20.38,27.01c12.97-1.35,25.52-1.3,38.63-.6l15.48-11.1,9.96-7.97c2.5-2,4.75-2.29,7.06-1.31,2.74,1.16,3.42,3.62,3.56,6.82l.66,14.94.94,31.64,5.84,26.69c.35,1.6-.12,2.94-.53,4.8l11.12-.05c1.18,0,2.66,1.61,2.65,2.47-.06,3.42-7.5,3.23-13.65,3.48ZM221.53,131.35c5.41-1.18,8.78-.46,12.87-.44.36-1.48.46-2.54.09-3.99-12.58-1.53-36.21,3.55-33.67,8.4,1.43,2.71,5.29-1.35,11.55-1.91-1.63,4.52.02,7.8,3.21,8.99,2.97,1.11,6.27-.15,7.53-2.57,1.6-3.06.78-6.42-1.58-8.48Z"/>
        <path class="cls-2" d="M273.55,182.87c1.47.54,2.67,1.84,3.3,3.66l3.89,11.19c2.31,6.66,2.42,14.61,6.26,20.67l30.69,48.44,23.15,40.73c1.28,2.26-.24,5.06-2.18,5.46-2.86.48-4.33-.7-5.89-3.39-17.37-30.09-34.81-59.44-54.87-88.17l-7.26-33.52c-.26-1.21.23-2.84.54-3.93.21-.74,1.23-1.37,2.37-1.13Z"/>
        <path class="cls-2" d="M273.31,180.15c-.96-2.22-2.33-2.65-4.68-2.72l-39.17-1.23c-1.87-.06-2.82-1.64-2.75-2.76.08-1.38.96-2.88,2.88-2.81l39.07,1.35c1.37.05,2.13-1.45,2.02-2.4,2.26,4.58,9.72,1.19,10.74,2.91.58.98.28,3.47-.31,4.41-1.45,2.29-7-.8-7.79,3.26Z"/>
        <path class="cls-2" d="M339.61,316.04c-.36-.04-.98-.4-.97-.74.46-.16,1.1-.02.97.74Z"/>
        <path class="cls-2" d="M180.17,158.11c-3.14-.6-4.65,2.93-6.29,3.81-3.79,2.05-13.88.63-14.45-3.56-.86-6.26,13.67,3.82,15.63-7.02-.55-2.72-5.33-8.07-.66-10.61,5.02-2.74,13.03-1.32,17.34,1.92.3,4.67-4.73,7.15-6.92,9.72,2.37,8.92,12.59,4.79,15.42,8.46.69.9.66,3.47-1.02,3.74-4.41.72-9.27-.34-13.67-1.74l-5.37-4.73Z"/>
        <path class="cls-3" d="M197.8,205.09c.67.94.29,2.19-.17,2.39-2.56,1.11-4.69-3.44-8.34-4.75l.12,4.5c.02.74-2.04.66-2.93-.23l-6.93-6.91c-1.21-1.2-.81-3.03.13-3.65,1.13-.75,2.83-.68,3.76.64l3.57,5.03c1.7-2.14-.36-5.26,2.18-6.06.87-.28,2.33.22,3.05,1.24l5.56,7.8Z"/>
        <rect class="cls-2" x="83.05" y="247.41" width="80.67" height="5.04" transform="translate(-4.61 2.33) rotate(-1.06)"/>
        <rect class="cls-2" x="91.05" y="265.75" width="80.52" height="5.03" transform="translate(-3.98 1.98) rotate(-.85)"/>
        <rect class="cls-2" x="67.47" y="210.81" width="80.9" height="5.03" transform="translate(-3.32 1.71) rotate(-.89)"/>
        <rect class="cls-2" x="75.59" y="229.11" width="80.52" height="4.98" transform="translate(-3.66 1.87) rotate(-.91)"/>
        <path class="cls-5" d="M221.53,131.35c2.37,2.05,3.18,5.42,1.58,8.48-1.26,2.42-4.56,3.68-7.53,2.57-3.19-1.19-4.85-4.47-3.21-8.99-6.26.56-10.12,4.62-11.55,1.91-2.54-4.84,21.09-9.92,33.67-8.4.37,1.45.27,2.51-.09,3.99-4.1-.02-7.47-.73-12.87.44Z"/>
      </g>
    </g>
  </g>
</svg>