<?xml version="1.0" encoding="UTF-8"?>
<svg id="Layer_2" data-name="Layer 2" xmlns="http://www.w3.org/2000/svg" viewBox="0 0 403.3 403.3">
  <defs>
    <style>
      .cls-1 {
        fill: #0c0b0a;
      }

      .cls-2 {
        fill: #ad872a;
      }

      .cls-3 {
        fill: #fbfbfb;
      }
    </style>
  </defs>
  <g id="Layer_1-2" data-name="Layer 1">
    <g>
      <path class="cls-2" d="M403.3,201.65c0,111.37-90.28,201.65-201.65,201.65S0,313.02,0,201.65,90.28,0,201.65,0s201.65,90.28,201.65,201.65ZM96.67,316.99c-.13,1.06-.28,2.24.09,4.04l234.29.03,4.91.91c1.91.35,2.93-2.64,2.67-5.13-3.84-37.45-10.8-72.92-27.94-106.62,3.49-1.83,4.89-3.88,4.7-6.71s-1.65-4.74-3.9-6.7l-9.67-8.46c-2.27-1.99-6.79-3.73-8.23-6.47l-14.81-28.31-19.63-35.64c6.63-3.63,7.16-12.05,2.59-17.33l-7.66-8.85c2.4-4.31,3.64-10.69-.3-14.18-4.54-4.01-11.39-3.92-17.42-3.35l2.71-10.7c.9-3.54.04-6.95-2.1-9.62-6.16-7.65-24.48-3.36-35.65,8.98-9.89,10.92-17.93,23.68-23.07,37.49-1.59,4.27-3.64,7.25-6.37,10.9-4.89,6.52-6.09,14.8-6.88,23.05-11.28,4.93-33.42,11.57-33.63,19.11-.06,2.06,2.11,4.33,4.8,4.66,4.18.51,7.6,2.31,11.73,3.19l26.78,5.71-2.55,17.47-6.64-11.74-23.48.87-96.38,5.95,36.23,72.95c9.1,18.33,12.95,37.82,13.92,58.11,1.06,2.29,1.15,4.39.9,6.36Z"/>
      <g>
        <rect class="cls-1" x="84.4" y="210.57" width="80.84" height="5.02" transform="translate(-4.15 2.49) rotate(-1.12)"/>
        <rect class="cls-1" x="92.36" y="228.86" width="80.64" height="5.06" transform="translate(-3.2 1.87) rotate(-.8)"/>
        <rect class="cls-1" x="100.36" y="247.2" width="80.63" height="5.05" transform="translate(-4.6 2.65) rotate(-1.06)"/>
        <g>
          <path class="cls-3" d="M331.05,321.06l-234.29-.03c-.37-1.8-.23-2.98-.09-4.04.29-2.9,3.2-3.51,6.66-3.57.48-24.91-6.23-48.96-17.37-71.03l-28.11-55.67,102.51-6.18,22.83,43.51c-5.66,7.75-3.72,16.91,2.28,23.89-.82,5.88.01,11.26,1.55,16.8l-77.1,1.74c-1.3.03-2.23,1.36-2.22,2.09.02,1.3.88,2.53,2.82,2.5l74.83-1.3c1.56-.03,2.79-1.17,3.96-1.89l5.33,5.92c1.8,2,.57,6.07.74,9.46l-76.89,1.6c-2.02.04-2.78.99-2.75,2.59.03,1.3,1.33,1.98,3.21,1.94l74.38-1.49,4.22-1.31c2.42,4.1,5.97,6.77,10.21,9.15l3.21,11.8c.55,2.04,5.07,1.89,6.01.09,1.3-2.48.51-4.98.36-7.86,18.09,6.14,42.96,5.69,53.63-9.23.56-.78.69-1.65.49-2.11-1.58-3.81-5.86,5.03-17.05,6.75-14.18,2.18-28.84.07-41.65-6.4-4.23-2.14-8.22-5.19-9.05-10.4,10.84,3.72,23.28,9.09,23.72,2.02.16-2.51-1.22-3.99-4.12-4.4-8.47-1.2-16.62-4.53-23.88-8.95-4.47-2.72-7.14-8.43-5.76-12.87,2.61,1.06,4.08,1.9,5.94,1.48,1.35-.31,2.54-2.16,2.53-4.18-.02-4.94-15.72-5.06-14.95-19.81l49.23,5.16c8.23.86,15.61,2.4,22.77,6.37,8.44,4.68,15.89,10.42,23.27,16.65,1.06.89,2.57.97,3.32.62,1.22-.57,1.64-3.16.32-4.17l-22.1-16.9c3.09-3.88,3.9-7.38,5.44-12.18,4.28,3.2,8.62,5.87,14,5.7,7.03-.23,6.27-12.13,3.26-22.2l15.14.08c18.47,33.73,25.52,72.47,29.19,110.29ZM165.19,209.78l-80.83,1.58.1,5.02,80.83-1.58-.1-5.02ZM172.96,228.3l-80.63,1.12.07,5.05,80.63-1.12-.07-5.05ZM180.94,246.46l-80.61,1.49.09,5.05,80.61-1.49-.09-5.05Z"/>
          <path class="cls-1" d="M331.05,321.06c-3.67-37.83-10.73-76.56-29.19-110.29l-15.14-.08c3.01,10.07,3.77,21.96-3.26,22.2-5.37.18-9.71-2.5-14-5.7-1.54,4.8-2.36,8.3-5.44,12.18l22.1,16.9c1.32,1.01.9,3.6-.32,4.17-.75.35-2.27.27-3.32-.62-7.38-6.23-14.83-11.97-23.27-16.65-7.17-3.98-14.55-5.51-22.77-6.37l-49.23-5.16c-.77,14.75,14.93,14.87,14.95,19.81,0,2.02-1.18,3.87-2.53,4.18-1.86.42-3.33-.42-5.94-1.48-1.37,4.44,1.29,10.15,5.76,12.87,7.25,4.42,15.4,7.75,23.88,8.95,2.9.41,4.28,1.89,4.12,4.4-.44,7.06-12.88,1.7-23.72-2.02.83,5.21,4.81,8.26,9.05,10.4,12.82,6.47,27.47,8.58,41.65,6.4,11.19-1.72,15.47-10.57,17.05-6.75.19.46.06,1.33-.49,2.11-10.67,14.92-35.54,15.37-53.63,9.23.15,2.88.94,5.38-.36,7.86-.95,1.8-5.46,1.95-6.01-.09l-3.21-11.8c-4.24-2.38-7.79-5.05-10.21-9.15l-4.22,1.31-74.38,1.49c-1.88.04-3.18-.64-3.21-1.94-.03-1.6.73-2.55,2.75-2.59l76.89-1.6c-.18-3.39,1.06-7.46-.74-9.46l-5.33-5.92c-1.17.72-2.4,1.86-3.96,1.89l-74.83,1.3c-1.95.03-2.81-1.2-2.82-2.5,0-.73.92-2.06,2.22-2.09l77.1-1.74c-1.53-5.54-2.36-10.92-1.55-16.8-5.99-6.98-7.93-16.13-2.28-23.89l-22.83-43.51-102.51,6.18,28.11,55.67c11.14,22.07,17.85,46.13,17.37,71.03-3.46.06-6.37.67-6.66,3.57.25-1.98.16-4.08-.9-6.36-.97-20.29-4.82-39.78-13.92-58.11l-36.23-72.95,96.38-5.95,23.48-.87,6.64,11.74,2.55-17.47-26.78-5.71c-4.13-.88-7.55-2.68-11.73-3.19-2.69-.33-4.86-2.6-4.8-4.66.21-7.55,22.35-14.19,33.63-19.11.79-8.25,1.99-16.53,6.88-23.05,2.74-3.65,4.78-6.63,6.37-10.9,5.14-13.82,13.19-26.57,23.07-37.49,11.17-12.34,29.49-16.63,35.65-8.98,2.15,2.67,3,6.08,2.1,9.62l-2.71,10.7c6.03-.56,12.88-.66,17.42,3.35,3.95,3.49,2.71,9.87.3,14.18l7.66,8.85c4.57,5.28,4.04,13.7-2.59,17.33l19.63,35.64,14.81,28.31c1.43,2.74,5.95,4.49,8.23,6.47l9.67,8.46c2.25,1.96,3.7,3.84,3.9,6.7s-1.21,4.88-4.7,6.71c17.14,33.69,24.1,69.17,27.94,106.62.25,2.49-.77,5.48-2.67,5.13l-4.91-.91ZM254.81,112.49c8.46-3.49.1-10.95-7.05-18.02-2.33-2.31,3.47-7.49,1.76-11.85-2.08-5.31-21.4.14-22.83-2.33-1.86-3.23,10.27-18.16,5.29-22.5-1.51-1.32-3.58-1.54-5.63-1.4-18.48,1.31-31.65,23.33-40.11,40.88l14.76-6.16c3.72-1.55,5.32-7.76,10.29-8.22,1.04,3.69-3.99,5.45-3.63,7.51.68,3.94,5.57-5.5,11.99-8.03.52,4.33-2.92,5.39-3.8,8.54,16.5.88,29.22,8.62,38.97,21.59ZM238.15,108.94c.46,2.85-.92,4.5-3.39,5.32l-12.09,3.99c-.89,1.01-.34,4.47.41,5.28l12.36-1.59c2.28-.29,3.34,1.52,3.07,3.48-.21,1.5-2.09,2.28-4.11,2.16-9.74-.58-18.43,1.09-27.49,5.53-.76-3.54,2.46-4.25,4.36-5.39,2.17-1.31.17-3.48-.52-4.59-1.58-2.54-6.8,1.98-8.05-1.91-.34-1.06-.05-2.85,1.55-3.54l26.52-11.44c1.84-.79,3.73-.51,5.95-.72-12.29-7.93-28.24-9.43-41.96-3.53-12.43,5.35-21.02,16.27-21.55,30.34,14.01-3.91,29.82-2.47,35.09,9.53,4.9,2.61,8.97,5.86,9.25,12.17.07,1.58-1.14,2.91-2.61,2.88-1.13-.02-2.56-1.15-2.73-2.83-1.07-10.7-12.9-6.69-14.35-8.83-.44-.66.35-2.39.66-3.65-4.54-3.42-11.44-4.24-17.37-3.02-12.02,2.49-23.3,6.19-34.83,12.58,15.22,1.68,29.36.09,44.14-.61,2.81-.13,4.04,1.55,4.04,3.82,0,2.43-1.22,3.58-3.94,3.79l-21.89,1.75c12.56,4.88,36.43,2.27,36.18,5.49-.05.58-.36,1.45-1.41,1.51l-16.24.86c8.13,11.96,22.31,31.55,34.4,33.92,4.87.96,8.31-3.04,9.57-6.68,3.63-10.54-14.13-18.29-26.62-22.2-1.66-.52-1.81-1.27-1.76-2.21.06-1.16,1.2-2.32,2.66-1.93,15.31,4.16,35.4,12.62,31.47,27.18-1.6,5.91-6.45,11.84-13.39,12.18-6.05.3-10.88-2.63-15.95-5.7-2.7,9.51-9.78,14.78-19.72,13.06l4.3,9.29,44.27,6.05c5.94.81,11.44,1.46,17.05,3.47,8.46,3.04,8.81-12.37,9.3-23.8,6.29,5.75,10.39,11.25,18.28,14.37-.17-7.62-2.51-14.7-5.24-22.26,2.54-1.29,5.01.4,7.56.4l22.19-.03-18.66-16.23c-5.83-7.62-8.93-17.07-13.52-25.54l-20.76-38.34c-3.37-6.22-8.18-11.24-13.45-15.27l-1.05,1.45ZM238.17,106.47c-.96-.12-1.36,1.18-.3,1.53l.3-1.53ZM200.01,195.66l-18.52-22.16c-3.32,11.86-2.81,29.62,3.93,33.11,3.13,1.62,6.38,2.05,9.84.58,3.07-1.3,6.97-8.47,4.76-11.53Z"/>
          <path class="cls-3" d="M239.2,107.48c5.27,4.03,10.08,9.05,13.45,15.27l20.76,38.34c4.59,8.47,7.69,17.92,13.52,25.54l18.66,16.23-22.19.03c-2.56,0-5.03-1.69-7.56-.4,2.73,7.56,5.07,14.64,5.24,22.26-7.9-3.11-11.99-8.61-18.28-14.37-.49,11.44-.84,26.84-9.3,23.8-5.6-2.01-11.11-2.66-17.05-3.47l-44.27-6.05-4.3-9.29c9.94,1.73,17.02-3.55,19.72-13.06,5.07,3.07,9.9,5.99,15.95,5.7,6.94-.34,11.79-6.27,13.39-12.18,3.93-14.56-16.15-23.02-31.47-27.18-1.46-.4-2.6.76-2.66,1.93-.05.94.1,1.69,1.76,2.21,12.49,3.91,30.26,11.66,26.62,22.2-1.26,3.64-4.69,7.63-9.57,6.68-12.09-2.37-26.27-21.96-34.4-33.92l16.24-.86c1.05-.06,1.36-.92,1.41-1.51.25-3.22-23.62-.61-36.18-5.49l21.89-1.75c2.71-.22,3.93-1.37,3.94-3.79,0-2.26-1.22-3.95-4.04-3.82-14.78.7-28.93,2.28-44.14.61,11.53-6.39,22.81-10.09,34.83-12.58,5.93-1.23,12.83-.4,17.37,3.02-.31,1.25-1.11,2.99-.66,3.65,1.45,2.14,13.28-1.88,14.35,8.83.17,1.68,1.59,2.81,2.73,2.83,1.46.03,2.68-1.3,2.61-2.88-.28-6.31-4.35-9.56-9.25-12.17-5.27-11.99-21.08-13.44-35.09-9.53.54-14.07,9.12-24.99,21.55-30.34,13.72-5.91,29.67-4.4,41.96,3.53-2.23.22-4.12-.07-5.95.72l-26.52,11.44c-1.6.69-1.89,2.48-1.55,3.54,1.25,3.9,6.47-.63,8.05,1.91.69,1.11,2.69,3.29.52,4.59-1.9,1.14-5.12,1.85-4.36,5.39,9.06-4.44,17.75-6.11,27.49-5.53,2.02.12,3.9-.66,4.11-2.16.27-1.96-.79-3.78-3.07-3.48l-12.36,1.59c-.75-.81-1.3-4.27-.41-5.28l12.09-3.99c2.47-.81,3.85-2.47,3.39-5.32-.07-.42-.17-.83-.28-.94-1.05-.35-.66-1.65.3-1.53.42.84.9.98,1.03,1.02Z"/>
          <path class="cls-3" d="M254.81,112.49c-9.75-12.96-22.47-20.7-38.97-21.59.88-3.15,4.33-4.21,3.8-8.54-6.42,2.53-11.31,11.97-11.99,8.03-.35-2.06,4.68-3.82,3.63-7.51-4.97.47-6.58,6.67-10.29,8.22l-14.76,6.16c8.46-17.54,21.63-39.56,40.11-40.88,2.05-.15,4.12.07,5.63,1.4,4.97,4.35-7.16,19.27-5.29,22.5,1.43,2.47,20.75-2.98,22.83,2.33,1.71,4.36-4.09,9.54-1.76,11.85,7.15,7.07,15.51,14.53,7.05,18.02Z"/>
          <path class="cls-3" d="M200.01,195.66c2.21,3.07-1.69,10.24-4.76,11.53-3.46,1.46-6.7,1.04-9.84-.58-6.74-3.49-7.24-21.25-3.93-33.11l18.52,22.16Z"/>
        </g>
      </g>
    </g>
  </g>
</svg>