<?xml version="1.0" encoding="UTF-8"?>
<svg id="Layer_2" data-name="Layer 2" xmlns="http://www.w3.org/2000/svg" viewBox="0 0 403.26 403.26">
  <defs>
    <style>
      .cls-1 {
        fill: #0c0b0a;
      }

      .cls-2 {
        fill: #211917;
      }

      .cls-3 {
        fill: #ad872a;
      }

      .cls-4 {
        fill: #fbfbfb;
      }
    </style>
  </defs>
  <g id="Layer_1-2" data-name="Layer 1">
    <g>
      <path class="cls-3" d="M403.26,201.63c0,111.36-90.27,201.63-201.63,201.63S0,312.99,0,201.63,90.27,0,201.63,0s201.63,90.27,201.63,201.63ZM118.73,302.91l-4.12,17.89,215.38.02c.26-1.06.44-2.46.13-2.98-.99-1.49,1.27-4.71,2.06-6.33,1.67-28.66-7.36-56.39-23.39-79.96l-14.69-21.6-10.36-14.51c-13.75-19.25-12.68-30.6-12.03-54.33l.72-26.28c.12-4.52-.3-8.56-1.5-13.45,7.7-.93,2.22,8.59,7.26,10.02,1.7.48,4.05-.69,5-3.03,2.28-5.66-1.24-11.67-6.68-14.74l-9.08-2.9c-4.55-6.59-8.69-13.76-15.52-18.15-24.01-15.41-49.87-16.52-71.58,2.08-5.8-2.41-12.25-2.89-18.2-.98-8.41,2.69-13.01,10.72-13.6,18.61-.71,9.48,4.3,15.58,13.14,21.95-15.94,1.88-51.55,7.44-44.07,18.68,1.87,2.82,6.49,4.13,9.84,4.77l28.58,5.41c-.43,5.79-.76,11.46-.6,18.12l-94.5,5.85,33.3,66.91c.96,1.93.91,3.95,2.93,5.32,8.05,18.15,13.11,37.37,13.78,57.38.06,1.95.49,3.82,1.64,4.55,1.74,1.11,4.01.56,5.5-.62.67,1.19.46,1.86.68,2.28Z"/>
      <g>
        <path class="cls-4" d="M330.12,317.85c.31.51.13,1.92-.13,2.98l-215.38-.02,4.12-17.89c.74-25.86-6.48-51.43-18.41-74.99l-27.04-53.66,102.43-6.35,34.49,67.03c-4.31.32-7.44-.54-10.54,1.11-3.25,4.69-3.02,10.18-.7,16.46l-74.54,1.52c-1.71.03-1.58,4.48.31,4.44l77.97-1.42c-.3,5.34-.38,9.24.66,13.69l-69.55,1.47c-2.13.04-3.08,1.49-2.62,3.15.34,1.23,1.36,1.61,3.26,1.58l70.67-1.29c1.97,3.62,4.24,6,7.53,8.54-.82,7.71,1.85,15.32,8.84,19.74,18.52,11.7,49.61,15.1,65.3-.66,1.65-1.66,2.66-4.02.64-6.11-14.11,14.66-42.4,10.1-59.17.99-3.78-2.05-6.97-5-7.09-9.6,9.7,4.08,22.31,8.57,23.79,2.68.29-1.14-.11-3.76-1.92-4.04-7.57-1.18-14.12-3.91-21.15-6.81-6.78-2.79-12.13-8.51-11.17-16.03,2.62,1.3,4.21,1.89,6.09,1.65,1.59-.2,2.68-1.46,2.6-3.61-.05-1.44-.43-3.15-2.47-3.95-7-2.74-13.33-8.29-12.36-16.55l59.91,6.62c13.35,4.53,24.4,12.19,34.84,21.35,1.62,1.24,3.58,1.49,4.63.06.84-1.15.35-2.58-.91-3.7-7.26-6.43-14.66-12.04-22.96-17-7.36-4.4-14.89-6.55-23.45-7.71l-37.57-5.1-6.01-13.3-32.62-63.23-17.77.97,1.22-16.68,28.67,5.44c13.36,2.54,28.34,5.08,38.01-3.62,2.57-2.31,4.43-5.45,4.42-8.67-.05-13.7-25.85-16.88-24.57-15.96-.54-.39-.99-2.64-1.77-2.85-9.6-2.52-19.9-4.55-29.52-6.1,6.23-3.62,9.61-8.27,11.27-14.58.67-2.55,4.23-3.46,6.03-2.72,2.52,1.04,3.94,2.69,4.2,5.76.99,11.43,11.07,19.38,22.12,18.64s18.92-8.91,19.89-20.15l19.22-.54c2.21,4.19,2.72,9,2.61,14.05l-.58,25.97c-.52,23.34-2.2,39.01,11.63,59.01l29.03,41.98c14.94,21.61,21.28,47.05,20.08,73.36,3.73.33,5.04,2.28,5.53,4.69ZM203.51,182.35l-4.2-14.29c-.41-1.39-2.59-1.46-3.3-.98-2.51,1.69,1.28,8.29,4.23,14.01l1.13,2.2c.23.44,2.51.32,2.14-.93ZM209.25,169.39c-.58-2.13-2.09-2.85-3.39-2.55-1.56.35-2.06,2.29-1.3,3.9l5.41,11.53c.5,1.06,1.06,1.25,1.81,1.1.93-.19.83-1.54.59-2.43l-3.13-11.55ZM221.44,184.27c.95-5.85-2.62-9.71-2.95-14.52-.22-1.96-1.35-2.64-2.62-2.93-5.01-1.14-.88,10.81,5.56,17.45ZM180.36,197.22l-81,1.52.1,5.11,81-1.52-.1-5.11ZM188.32,215.57l-80.9,1.54.1,5.06,80.9-1.54-.1-5.06ZM196.16,234l-80.82,1.41.09,5.02,80.82-1.41-.09-5.02Z"/>
        <path class="cls-1" d="M330.12,317.85c-.49-2.41-1.8-4.36-5.53-4.69,1.2-26.3-5.14-51.74-20.08-73.36l-29.03-41.98c-13.83-20-12.15-35.67-11.63-59.01l.58-25.97c.11-5.04-.39-9.86-2.61-14.05l-19.22.54c-.97,11.24-9.22,19.43-19.89,20.15s-21.13-7.21-22.12-18.64c-.26-3.07-1.69-4.72-4.2-5.76-1.8-.74-5.36.17-6.03,2.72-1.66,6.31-5.04,10.96-11.27,14.58,9.62,1.55,19.92,3.58,29.52,6.1.78.2,1.23,2.46,1.77,2.85-1.28-.91,24.52,2.26,24.57,15.96.01,3.22-1.85,6.36-4.42,8.67-9.67,8.71-24.65,6.16-38.01,3.62l-28.67-5.44-1.22,16.68,17.77-.97,32.62,63.23,6.01,13.3,37.57,5.1c8.56,1.16,16.09,3.31,23.45,7.71,8.3,4.96,15.7,10.57,22.96,17,1.26,1.12,1.75,2.56.91,3.7-1.05,1.43-3.01,1.18-4.63-.06-10.44-9.16-21.49-16.81-34.84-21.35l-59.91-6.62c-.97,8.27,5.36,13.81,12.36,16.55,2.04.8,2.42,2.5,2.47,3.95.08,2.15-1.01,3.41-2.6,3.61-1.88.24-3.47-.35-6.09-1.65-.97,7.52,4.39,13.24,11.17,16.03,7.03,2.9,13.58,5.63,21.15,6.81,1.81.28,2.21,2.9,1.92,4.04-1.48,5.89-14.09,1.41-23.79-2.68.12,4.6,3.31,7.55,7.09,9.6,16.77,9.11,45.05,13.67,59.17-.99,2.03,2.09,1.02,4.45-.64,6.11-15.69,15.76-46.78,12.36-65.3.66-6.99-4.42-9.66-12.03-8.84-19.74-3.29-2.53-5.56-4.92-7.53-8.54l-70.67,1.29c-1.9.03-2.92-.35-3.26-1.58-.46-1.66.49-3.1,2.62-3.15l69.55-1.47c-1.03-4.45-.96-8.35-.66-13.69l-77.97,1.42c-1.89.03-2.02-4.41-.31-4.44l74.54-1.52c-2.32-6.28-2.55-11.77.7-16.46,3.09-1.65,6.23-.79,10.54-1.11l-34.49-67.03-102.43,6.35,27.04,53.66c11.93,23.56,19.15,49.13,18.41,74.99-.22-.42-.01-1.09-.68-2.28-1.49,1.18-3.75,1.73-5.5.62-1.15-.73-1.58-2.6-1.64-4.55-.66-20.01-5.73-39.23-13.78-57.38-2.02-1.37-1.97-3.39-2.93-5.32l-33.3-66.91,94.5-5.85c-.15-6.66.18-12.33.6-18.12l-28.58-5.41c-3.35-.63-7.97-1.95-9.84-4.77-7.48-11.24,28.13-16.8,44.07-18.68-8.85-6.38-13.85-12.48-13.14-21.95.59-7.89,5.19-15.92,13.6-18.61,5.95-1.9,12.4-1.43,18.2.98,21.71-18.61,47.57-17.49,71.58-2.08,6.83,4.38,10.96,11.56,15.52,18.15l9.08,2.9c5.44,3.07,8.96,9.08,6.68,14.74-.94,2.34-3.3,3.51-5,3.03-5.04-1.43.44-10.95-7.26-10.02,1.2,4.9,1.62,8.93,1.5,13.45l-.72,26.28c-.65,23.73-1.72,35.08,12.03,54.33l10.36,14.51,14.69,21.6c16.03,23.57,25.06,51.3,23.39,79.96-.79,1.62-3.06,4.84-2.06,6.33ZM202.58,89.24c4.73-8.67,12.35-12.32,21.2-11.57,7.5.63,14.38,6.2,17.55,14.11l16.62-1.12c-16.87-23.39-49.42-29.45-71.62-10.69,1.5,2.76,2.66,5.08,3.67,7.87,4.56-1.8,8.32-.93,12.58,1.41ZM182.97,93.37c0-7.33-5.94-13.26-13.26-13.26s-13.26,5.94-13.26,13.26,5.94,13.26,13.26,13.26,13.26-5.94,13.26-13.26ZM234.61,98.53c0-7.34-5.95-13.29-13.29-13.29s-13.29,5.95-13.29,13.29,5.95,13.29,13.29,13.29,13.29-5.95,13.29-13.29ZM215.24,144.24c4.23-.17,12.58-3.64,10.95-7.97-2.03-5.4-10.81-5.83-14.8-8.12-1.28-.74-1.58-2.22-2.03-2.77s-2.13.36-3.08.17l-23.85-4.75c-5.91-1.18-11.44,1.3-17.22,1.76-12.57,1-24.7,1.62-36.35,7.09,7.14,2.35,13.65,3.15,20.56,4.21,14.59,2.23,28.66,4.63,43.06,7.75,7.59,1.64,14.28,2.97,22.75,2.63Z"/>
        <rect class="cls-1" x="99.41" y="197.98" width="81.01" height="5.11" transform="translate(-3.74 2.66) rotate(-1.08)"/>
        <rect class="cls-1" x="107.47" y="216.34" width="80.91" height="5.06" transform="translate(-4.15 2.86) rotate(-1.09)"/>
        <rect class="cls-1" x="115.38" y="234.7" width="80.83" height="5.02" transform="translate(-4.13 2.76) rotate(-1)"/>
        <path class="cls-2" d="M221.44,184.27c-6.44-6.64-10.57-18.59-5.56-17.45,1.27.29,2.4.97,2.62,2.93.32,4.82,3.9,8.68,2.95,14.52Z"/>
        <path class="cls-2" d="M209.25,169.39l3.13,11.55c.24.89.34,2.24-.59,2.43-.76.15-1.32-.04-1.81-1.1l-5.41-11.53c-.76-1.61-.26-3.55,1.3-3.9,1.31-.3,2.82.42,3.39,2.55Z"/>
        <path class="cls-2" d="M203.51,182.35c.37,1.26-1.91,1.37-2.14.93l-1.13-2.2c-2.95-5.72-6.74-12.32-4.23-14.01.71-.47,2.89-.41,3.3.98l4.2,14.29Z"/>
        <path class="cls-4" d="M215.24,144.24c-8.47.34-15.16-.99-22.75-2.63-14.41-3.12-28.47-5.52-43.06-7.75-6.91-1.05-13.42-1.86-20.56-4.21,11.65-5.46,23.78-6.08,36.35-7.09,5.79-.46,11.31-2.94,17.22-1.76l23.85,4.75c.94.19,2.64-.69,3.08-.17s.75,2.03,2.03,2.77c3.99,2.28,12.77,2.72,14.8,8.12,1.63,4.34-6.72,7.81-10.95,7.97Z"/>
        <path class="cls-4" d="M202.58,89.24c-4.26-2.34-8.03-3.21-12.58-1.41-1.02-2.78-2.18-5.1-3.67-7.87,22.2-18.76,54.76-12.7,71.62,10.69l-16.62,1.12c-3.17-7.91-10.05-13.48-17.55-14.11-8.85-.75-16.47,2.9-21.2,11.57Z"/>
        <path class="cls-4" d="M182.97,93.37c0,7.33-5.94,13.26-13.26,13.26s-13.26-5.94-13.26-13.26,5.94-13.26,13.26-13.26,13.26,5.94,13.26,13.26ZM177.07,96.21c0-3.38-2.74-6.13-6.13-6.13s-6.13,2.74-6.13,6.13,2.74,6.13,6.13,6.13,6.13-2.74,6.13-6.13Z"/>
        <path class="cls-4" d="M234.61,98.53c0,7.34-5.95,13.29-13.29,13.29s-13.29-5.95-13.29-13.29,5.95-13.29,13.29-13.29,13.29,5.95,13.29,13.29ZM225.68,98.94c0-3.36-2.73-6.09-6.09-6.09s-6.09,2.73-6.09,6.09,2.73,6.09,6.09,6.09,6.09-2.73,6.09-6.09Z"/>
        <circle class="cls-1" cx="170.95" cy="96.21" r="6.13"/>
        <circle class="cls-1" cx="219.59" cy="98.94" r="6.09"/>
      </g>
    </g>
  </g>
</svg>