<?xml version="1.0" encoding="UTF-8"?>
<svg id="Layer_2" data-name="Layer 2" xmlns="http://www.w3.org/2000/svg" viewBox="0 0 208.13 208.13">
  <defs>
    <style>
      .cls-1 {
        fill: #f4f1ec;
      }

      .cls-2 {
        fill: #211614;
      }
    </style>
  </defs>
  <g id="Layer_1-2" data-name="Layer 1">
    <g>
      <rect class="cls-1" width="208.13" height="208.13" rx="18.48" ry="18.48"/>
      <g>
        <path class="cls-2" d="M94.39,99.92c-9.18-5.1-15.24-8.7-15.24-16.26s6.34-9.64,12.12-9.64c7.19,0,12.31,3.12,12.87,8.6.28,1.23.38,2.55,0,3.97,1.04.19,2.08.28,2.93,0,2.93-.28,3.79-2.08,3.79-4.35,0-7.47-7.67-11.72-18.84-11.72s-20.07,4.54-20.07,15.5c0,10.11,7.29,14.75,18.17,20.79,9.84,5.48,15.15,9.07,15.15,16.64s-5.68,11.53-13.73,11.53c-9.28,0-14.86-4.73-15.24-11.91-.09-1.51-.09-2.74.28-3.97-5.3-.76-7,1.8-7,5.39,0,7.66,6.44,13.99,21.2,13.99,16.28,0,22.06-8.6,22.06-17.11,0-10.49-8.24-15.97-18.46-21.46Z"/>
        <path class="cls-2" d="M146.57,70.71c-3.22,0-7.8.07-12.05.22l-2.99.09-.85.03-2.95.09-1.86.12c-1.34.07-2.31.39-2.93.93-.2.15-.37.33-.52.55-.51.78-.51,1.77.19,2.37.71.6,1.94.63,2.37-.19.1-.2.2-.38.31-.55.16.05.33.1.48.15.18.06.34.13.5.21.55.27.97.73,1.21,1.27.07.17.13.34.17.52.03.15.06.3.07.45.11,1.95.11,3.98.11,5.75v49.8c-.51.53-1.89,1.21-2.05,1.26-.14.05-.31.1-.48.15-.1-.17-.2-.35-.31-.55-.42-.82-1.66-.79-2.37-.19-.71.6-.7,1.59-.19,2.37.14.22.32.4.52.55.62.54,1.59.86,2.93.93l1.86.12,3.01.09c.16.01,16.19.02,16.19.02,17.13,0,27.07-9.83,27.07-33.18s-9.94-33.37-27.45-33.37ZM146.57,133.75h-11.08l-.09-56.98s0-.02.01-.02c.61-1.49,2.07-2.45,3.68-2.45h7.47c12.4,0,19.12,9.26,19.12,30.25s-6.72,29.21-19.12,29.21Z"/>
        <path class="cls-2" d="M59.48,133.58c-.8-.58-1.95-.29-2.43.57-.05.09-.1.17-.15.25-.16-.05-.33-.1-.48-.15-.18-.06-.34-.13-.5-.21,0,0-.01,0-.02,0-.68-.34-1.12-1.03-1.22-1.78-.28-2.01-.36-4.22-.36-6.43v-51.42c0-.99-.27-1.83-.74-2.48-.02-.03-.03-.07-.05-.1-.06-.08-.13-.14-.19-.21,0,0,0,0,0,0-1.01-1.09-2.02-1.45-3.58-1.45h-5.56v.88l.29.2c.39.16.71.46.98.85.91,2.73,1.19,6.35,1.19,9.98l-.65,51.42c0,2.55,1.81,4.22,4.37,4.22.29,0,.96.01,1.67,0h2.27s2.02-.01,2.02-.01c1.34-.07,2.28-.58,2.9-1.12.2-.15.37-.33.52-.55.53-.81.51-1.85-.29-2.44Z"/>
      </g>
    </g>
  </g>
</svg>