<?xml version="1.0" encoding="UTF-8"?>
<svg id="Layer_2" data-name="Layer 2" xmlns="http://www.w3.org/2000/svg" viewBox="0 0 68.38 44.54">
  <defs>
    <style>
      .cls-1 {
        stroke-width: .57px;
      }

      .cls-1, .cls-2, .cls-3, .cls-4, .cls-5, .cls-6, .cls-7, .cls-8, .cls-9 {
        stroke: #000;
      }

      .cls-1, .cls-2, .cls-3, .cls-4, .cls-5, .cls-6, .cls-7, .cls-8, .cls-9, .cls-10 {
        stroke-linecap: round;
      }

      .cls-1, .cls-2, .cls-3, .cls-4, .cls-5, .cls-6, .cls-7, .cls-8, .cls-10 {
        stroke-linejoin: round;
      }

      .cls-2, .cls-10 {
        stroke-width: .91px;
      }

      .cls-3, .cls-8, .cls-9 {
        stroke-width: 1.49px;
      }

      .cls-11, .cls-8, .cls-9 {
        fill: #fff;
      }

      .cls-4 {
        stroke-width: .87px;
      }

      .cls-5 {
        stroke-width: .81px;
      }

      .cls-6 {
        stroke-width: .83px;
      }

      .cls-7 {
        stroke-width: 1.25px;
      }

      .cls-9 {
        stroke-linejoin: bevel;
      }

      .cls-10 {
        stroke: #fff;
      }
    </style>
  </defs>
  <g id="Layer_1-2" data-name="Layer 1">
    <g>
      <g>
        <path class="cls-8" d="M56.79,37.03c0,4.35-9.78,6.77-21.83,6.77s-21.83-2.42-21.83-6.77,9.78-7.87,21.83-7.87,21.83,3.52,21.83,7.87Z"/>
        <g>
          <ellipse class="cls-8" cx="34.19" cy="30.34" rx="33.45" ry="9.45"/>
          <path class="cls-9" d="M12.45,29.2s-2.09-1.45-1.45-3.87c.64-2.42,2.42-2.42,2.42-2.42,0,0,1.61-2.58,2.42-2.58s1.13-1.29,1.13-1.29c0,0,1.45-4.03,3.38-4.67,1.93-.64,3.55-.81,3.55-.81,0,0,2.9-2.58,5.64-2.58s4.35.64,4.35.64c0,0,2.09-1.93,4.67-1.77s4.67,2.26,4.67,2.26c0,0,3.55.81,3.55,2.09,0,0,4.43.09,5.09,2.95,0,0,1.76.88,1.76,2.53,0,0,4.96.33,4.41,4.52,0,0,2.86.55,1.65,3.31,0,0-1.21,1.54-4.08,1.76,0,0-3.2,2.53-6.39,2.53h-2.2c-.6,0-1.19-.09-1.75-.28-1.06-.35-2.98-.82-3.98-.05-1.43,1.1-4.3.44-5.07-.11s-2.31-.11-2.31-.11c0,0-2.16.83-3.42.88-3.16.13-4.3-2.75-4.3-2.75,0,0-1.65,1.32-3.2,1.32s-3.64-1.1-3.64-1.1l-2.2.44s-3.25.49-4.71-.86Z"/>
          <g>
            <path class="cls-11" d="M29.19,27.16s-2.6.25-2.47,2.91"/>
            <path d="M29.23,27.53c-1.15.25-2.02,1.27-1.76,2.5.06.41-.22.8-.64.86-1.6.01-.62-2.55.1-3.16.36-.46,2.47-1.49,2.63-.59.01.2-.14.37-.33.4h0Z"/>
          </g>
          <path class="cls-9" d="M31.97,25.74s1.3-.49,2.16.49"/>
          <g>
            <path class="cls-11" d="M27.97,16.48s-1.85-2.78-5.13-1.85"/>
            <path d="M27.36,16.89c-.87-1.52-2.68-2.43-4.46-2.05-.26.05-.36-.35-.11-.43,2.05-.81,4.41-.04,5.81,1.66.68.85-.72,1.78-1.24.83h0Z"/>
          </g>
          <path d="M16.69,19.62c.77-1.2,2.27-2.05,3.68-1.54.53.23,1.69.62,1.28,1.33-.16.22-.47.27-.69.12-.53-.32-1.14-.54-1.72-.33-.52.16-1.03.7-1.26,1.17-.47.92-1.85.13-1.29-.74h0Z"/>
          <path d="M15.38,22.99c1.11-.85,2.61-.51,3.58.26.14.1.16.3.06.43-.09.11-.24.15-.36.1-.65-.24-1.31-.33-1.89-.03-.14.07-.33.24-.34.29-.11,1.16-1.83,1.02-1.76-.14,0-.43.41-.69.71-.92h0Z"/>
          <path class="cls-9" d="M41.52,22.03s1.61-.92,2.65-.23"/>
          <path class="cls-9" d="M49.69,23.53s1.04-1.38,2.88-1.27"/>
          <circle class="cls-7" cx="54.24" cy="26.12" r=".7"/>
          <circle class="cls-5" cx="34.98" cy="21.63" r=".46"/>
          <polygon class="cls-6" points="31.39 19.79 31.17 20.7 29.09 19.36 29.41 18.28 31.39 19.79"/>
          <polygon class="cls-1" points="40.51 12.61 40.88 13.13 39.25 13.6 38.83 12.95 40.51 12.61"/>
          <polygon class="cls-4" points="23.62 26.87 22.97 27.59 20.79 26.18 21.37 25.74 23.62 26.87"/>
          <polygon class="cls-4" points="50.26 19.57 50.93 20.29 48.56 21.35 47.78 20.45 50.26 19.57"/>
          <g>
            <path class="cls-3" d="M33.24,17.43s8.73-1.26,12.41-6.2c.43-.58,1-1.05,1.66-1.36,1.35-.64,3.39-1.22,3.54,1,.23,3.34-8.74,9.43-17.6,6.56Z"/>
            <g>
              <path d="M49.65,10.22s-1.36-.72-3.08,1.3c-1.34,1.57-3.06,2.63-4.31,3.23"/>
              <path class="cls-11" d="M49.5,10.51c-1.36-.5-2.5.94-3.41,1.85-1.11,1.05-2.41,1.87-3.78,2.51-.06.03-.13,0-.16-.06-.03-.06,0-.13.06-.16,1.32-.68,2.55-1.55,3.57-2.6.99-1.1,2.2-2.75,4.02-2.11.43.18.1.81-.3.57h0Z"/>
            </g>
          </g>
          <g>
            <path class="cls-2" d="M36.96,13.06s-5.32-.85-7.52-3.9c-.26-.36-.6-.65-1-.85-.82-.4-2.06-.78-2.17.58-.17,2.04,5.25,5.85,10.7,4.18Z"/>
            <g>
              <path d="M27,8.5s.84-.42,1.87.83c.8.97,1.85,1.64,2.6,2.02"/>
              <path class="cls-11" d="M26.91,8.32c1.12-.37,1.84.65,2.44,1.33.62.65,1.36,1.2,2.16,1.63.08.04.02.18-.07.13-.83-.4-1.61-.92-2.28-1.57-.55-.57-1.26-1.49-2.1-1.15-.24.11-.39-.28-.15-.36h0Z"/>
            </g>
          </g>
          <g>
            <path class="cls-10" d="M40.44,33.51c3.23,0,6.06-1.51,7.44-3,.68-.74,1-1.46.95-2.1-.07-.88-.57-1.38-1.37-1.38-.42,0-.91.14-1.48.42-.46.23-.87.57-1.17,1-1.71,2.36-6.1,3.36-7.38,3.63-.26.05-.44.27-.46.53h0c-.02.29.17.54.45.61.79.2,2.2.3,3.03.3h0Z"/>
            <path class="cls-2" d="M37.66,32.63s5.32-.85,7.52-3.9c.26-.36.6-.65,1-.85.82-.4,2.06-.78,2.17.58.17,2.04-5.25,5.85-10.7,4.18Z"/>
            <g>
              <path d="M47.62,28.07s-.84-.42-1.87.83c-.8.97-1.85,1.64-2.6,2.02"/>
              <path class="cls-11" d="M47.53,28.24c-.83-.29-1.52.6-2.07,1.17-.67.65-1.45,1.17-2.29,1.57-.08.04-.15-.09-.07-.13.8-.43,1.54-.97,2.16-1.63.6-.68,1.32-1.7,2.44-1.33.27.11.07.5-.18.35h0Z"/>
            </g>
          </g>
          <path d="M31.06,14.69c-1.07-.18-2.2.27-2.83,1.13-.25.33-.73.39-1.06.13-1.1-1.13,1.17-1.95,2.03-2.04.71-.08,1.38.02,2.03.31.13.06.18.21.12.33-.05.12-.18.17-.3.14h0Z"/>
          <g>
            <path class="cls-8" d="M16.33,31.12s-.49-6.57-4.75-7.62-7.76-.42-7.76-.42c0,0,3.14,7.9,12.51,8.04Z"/>
            <g>
              <path class="cls-11" d="M7.67,24.62s5.87,2.31,8.46,6.08"/>
              <path d="M7.74,24.43c3.38,1.28,6.66,2.94,8.99,5.85.59.77-.57,1.68-1.18.91-1.82-2.86-4.94-4.89-7.97-6.39-.23-.1-.08-.46.16-.37h0Z"/>
            </g>
          </g>
          <g>
            <path class="cls-8" d="M23.68,32.78s-3.74-5.42-7.95-4.17c-4.21,1.25-6.9,3.56-6.9,3.56,0,0,6.71,5.22,14.85.61Z"/>
            <g>
              <path class="cls-11" d="M12.92,31.56s6.23-.98,10.37.97"/>
              <path d="M12.89,31.36c3.56-.6,7.23-.83,10.72.49.38.15.57.59.42.97-.15.38-.59.57-.97.42-3.01-1.55-6.73-1.72-10.11-1.48-.25.03-.3-.36-.05-.4h0Z"/>
            </g>
          </g>
          <g>
            <path class="cls-11" d="M38.61,25.5s-.57-1.66,1.38-2.37c1.66-.61,2.61.59,2.61.59"/>
            <path d="M38.18,25.65c-1.13-1.96,1.41-3.96,3.27-3.23.59.22,1.06.67,1.22,1.24.02.06-.02.12-.07.13-.91-.28-1.62-.33-2.43.08-.72.34-1.01.71-1.13,1.49,0,.49-.59.74-.86.3h0Z"/>
          </g>
        </g>
        <path d="M51.77,38.49s-9.52,4.48-28.29,2.93c0,0-5.43-.61-8.08-1.66-2.66-1.05-.5-1.75-.5-1.75,0,0,7.42,1.4,16.63,1.68,7.42.23,16.46-.56,20.24-1.2Z"/>
      </g>
      <g>
        <polygon points="11.65 14.63 1.27 11.84 2.74 8.5 11.8 14.27 11.65 14.63 11.65 14.63"/>
        <polygon points="13.02 12.79 5.75 5.89 8.34 3.86 13.3 12.57 13.02 12.79 13.02 12.79"/>
        <polygon points="13.74 10.81 10.1 .7 13.68 0 14.12 10.74 13.74 10.81 13.74 10.81"/>
      </g>
    </g>
  </g>
</svg>