<?xml version="1.0" encoding="UTF-8"?>
<svg id="Layer_2" data-name="Layer 2" xmlns="http://www.w3.org/2000/svg" viewBox="0 0 147.11 198.17">
  <defs>
    <style>
      .cls-1 {
        fill: none;
      }

      .cls-1, .cls-2 {
        stroke: #000;
        stroke-linecap: round;
        stroke-linejoin: bevel;
        stroke-width: 3.32px;
      }

      .cls-2, .cls-3 {
        fill: #fff;
      }
    </style>
  </defs>
  <g id="Layer_1-2" data-name="Layer 1">
    <g>
      <path class="cls-3" d="M147.11,163.01s.19,17.01-14.55,25.7c-14.74,8.69-30.61,5.1-30.61,5.1l-26.59-54.57h-5.53l-6.56,55.95s-17.27,2.42-29.36-1.38c-12.09-3.8-25.9-17.27-25.9-17.27l22.1-51.11s-5.18-32.81-2.07-54.91c3.11-22.1-1.38-34.54,5.87-40.06,7.25-5.53,5.53-17.96,13.47-23.83,7.94-5.87,17.96-3.11,19.34-2.07s9.32,8.29,9.32,8.29c0,0,12.43,12.09,13.12,20.38l.69,8.29s8.63-1.38,10.02,2.42c1.38,3.8,4.14,46.28,4.14,46.28,0,0,7.6,23.48,7.94,31.77l.35,8.29,34.8,32.74Z"/>
      <g>
        <path class="cls-1" d="M76.04,136.99s-1.73,3.11-6.57,3.8l-6.86,55.72"/>
        <path class="cls-1" d="M5.96,180.71l23.89-55.52c-7.8-34.74-.77-65.99-.77-65.99,0,0-1.42-26.92,5.18-28.14,2.92-.54,9.44,9.58,9.19,15.99"/>
        <path class="cls-2" d="M36.43,29.94s2.86-23.95,9.97-23.69c5.33.19,6.05,10.53,6.05,10.53"/>
        <g>
          <g>
            <path class="cls-3" d="M91.4,42.49s4.32-3.82,8.66.73c4.06,4.26,3.35,48.02,3.35,48.02"/>
            <path d="M90.3,41.25c3.49-2.28,8.17-1.65,10.7,1.68.92,1.42,1.22,3.12,1.55,4.65,1.6,9.68,1.71,19.37,2.11,29.12.16,4.85.28,9.69.4,14.56.02.92-.7,1.68-1.62,1.7-.96.03-1.76-.79-1.7-1.75.47-9.63.55-19.32.23-28.96-.23-4.81-.49-9.65-1.28-14.32-.39-1.62-.46-3.32-1.7-4.45-1.77-1.84-5-1.87-6.51.26-.37.93-1.41,1.38-2.34,1.02-1.33-.48-1.53-2.43-.34-3.17,0,0,.49-.33.49-.33h0Z"/>
          </g>
          <g>
            <g>
              <path class="cls-3" d="M57.31,12.24s.69-11,8.68-8.91c7.99,2.08,18.08,52.35,18.08,52.35"/>
              <path d="M55.65,12.13c.5-6.12,4.32-12.56,11.35-10.02,6.86,3.64,12.08,28.14,14.17,36.08,1.35,5.75,2.6,11.51,3.73,17.31.19,1.07-1.43,1.46-1.68.34-2.53-11.44-5.37-22.89-9-34.02-1.84-5.29-3.7-11.15-6.95-15.63-.49-.61-.94-1.08-1.5-1.36-.17-.09-.92-.16-1.15-.21-4.05-.32-5.3,4.19-5.66,7.72-.13,2.26-3.47,2.05-3.31-.21h0Z"/>
            </g>
            <g>
              <line class="cls-3" x1="112.13" y1="127.53" x2="145.06" y2="162.55"/>
              <path d="M113.33,126.39l32.5,35.43c.91,1.01-.56,2.44-1.54,1.45,0,0-33.37-34.61-33.37-34.61-1.49-1.6.89-3.88,2.42-2.27h0Z"/>
            </g>
            <g>
              <path class="cls-3" d="M50.17,40.88s-2.25-18.22,1.23-23.78c3.47-5.56,7.99-3.13,10.42,2.43,2.43,5.56,13.2,45.87,13.2,45.87"/>
              <path d="M48.53,41.08c-.56-7.78-1.51-15.82,1.04-23.44,3.43-7.36,10.05-6.08,13.08.72,3.26,8.51,5.16,17.31,7.64,26.02,1.85,6.94,3.66,13.88,5.44,20.84.1.39-.13.78-.52.88-.38.1-.77-.13-.88-.51-1.93-6.91-3.9-13.81-5.89-20.7-2.6-8.47-4.74-17.26-8.04-25.44-2.26-4.57-5.83-6.04-8.24-.73-1.22,3.55-1.2,7.47-1.15,11.4.09,3.53.38,7.1.81,10.59.22,2.19-3.01,2.57-3.3.37h0Z"/>
            </g>
            <path class="cls-2" d="M100.79,194.43c-19.68-41.15-26.85-58.8-26.85-58.8"/>
            <g>
              <path class="cls-3" d="M64.88,77.25s-5.9-16.93-8.35-30.71c-1.77-9.96-4.74-13.96-6.56-14.31-9.23-1.77-8.38,11.79-3.28,39.95,1.6,8.84,4.45,30.65,8.48,45.35,3.79,13.82,15.88,18.43,23.56,19.96"/>
              <path d="M63.91,77.59c-2.34-6.8-4.43-13.65-6.22-20.62-1.96-6.7-2.32-14.16-5.37-20.45-.59-1.13-1.58-2.88-2.71-3.14-.77-.14-1.52-.14-2.16.02-3.63,1.21-3.21,7.31-3.27,10.57.62,13.68,4.24,28.62,6.2,42.25,1.76,10.51,3.53,21.08,6.38,31.33,2.75,10.16,12.19,16.51,22.3,18.31.9.17,1.49,1.04,1.31,1.94-.17.9-1.06,1.49-1.96,1.31-3.64-.74-7.2-1.93-10.53-3.68-3.32-1.74-6.38-4.1-8.81-7.03-4.97-5.73-6.14-13.43-7.72-20.54-1.46-7.04-2.62-14.12-3.74-21.19-.79-5.29-2.51-15.9-3.44-21.16-1.31-8.86-3.13-17.93-2.23-27.02.31-2.76,1.61-6.69,4.92-7.41,1.29-.3,2.47-.22,3.64.07.99.31,1.78,1.09,2.38,1.84,4.84,6.94,4.63,15.63,6.94,23.45,1.72,6.9,3.76,13.75,6.02,20.48.42,1.28-1.46,1.94-1.93.67h0Z"/>
            </g>
            <g>
              <path class="cls-3" d="M73.72,13.14s3.79-.74,8.69,6.61c4.9,7.35,16.07,46.72,16.07,46.72,0,0,8.06,26.67,13.21,61.2"/>
              <path d="M73.41,11.51c3.22-.36,6.09,2.02,8.06,4.23,1.83,2.02,3.31,4.52,4.3,6.98,2.05,4.86,3.64,9.76,5.2,14.69,1.54,4.93,3.02,9.87,4.45,14.82,5.94,19.76,11.1,39.74,14.96,60.01,1.03,5.06,1.9,10.14,2.81,15.23.15.81-.4,1.59-1.21,1.74-.84.15-1.65-.45-1.75-1.3-3.3-25.45-9.06-50.61-16.91-75.04-1.58-4.89-3.2-9.77-4.92-14.6-1.74-4.81-3.48-9.67-5.57-14.24-1.7-3.64-4.1-7.3-7.77-9.01-.36-.14-.7-.23-1.07-.24,0,0-.03,0,.06-.01-2.14.38-2.77-2.79-.63-3.26h0Z"/>
            </g>
          </g>
        </g>
        <path d="M40.33,73.84c2.57,4.32,5.04,8.69,7.16,13.25.7,1.54,1.38,3.09,1.87,4.79.16.56-.16,1.15-.72,1.31-.56.16-1.15-.16-1.31-.72-1.76-6.31-4.98-12.25-7.98-18.07-.35-.63.6-1.19.98-.56h0Z"/>
        <path d="M45.79,131.89c7.33,3.87,15.75,7.37,24.17,6.27.58-.09,1.12.31,1.21.88.09.6-.34,1.16-.94,1.21-2.28.23-4.54.06-6.73-.3-4.34-.8-8.45-2.38-12.37-4.31-1.95-.97-3.85-2-5.69-3.18-.36-.23-.02-.81.36-.58h0Z"/>
        <path class="cls-2" d="M49.27,6.16s2.74-7.95,9.57-2.72"/>
      </g>
      <g>
        <polygon points="20.5 29.9 0 22.65 1.47 19.32 20.66 29.54 20.5 29.9 20.5 29.9"/>
        <polygon points="23.37 26.22 9.73 11.19 12.32 9.17 23.65 26 23.37 26.22 23.37 26.22"/>
        <polygon points="24.88 22.26 19.12 1.3 22.7 .6 25.27 22.19 24.88 22.26 24.88 22.26"/>
      </g>
    </g>
  </g>
</svg>